G04 (created by PCBNEW-RS274X (2011-05-25)-stable) date Ut 23. jún 2015, 15:15:57 CEST*
G01*
G70*
G90*
%MOIN*%
G04 Gerber Fmt 3.4, Leading zero omitted, Abs format*
%FSLAX34Y34*%
G04 APERTURE LIST*
%ADD10C,0.006000*%
%ADD11R,0.075000X0.075000*%
%ADD12C,0.075000*%
%ADD13R,0.080000X0.080000*%
%ADD14C,0.080000*%
%ADD15C,0.090000*%
G04 APERTURE END LIST*
G54D10*
G54D11*
X28300Y-28500D03*
G54D12*
X27300Y-28500D03*
X26300Y-28500D03*
X25300Y-28500D03*
X24300Y-28500D03*
G54D11*
X14900Y-28500D03*
G54D12*
X13900Y-28500D03*
X12900Y-28500D03*
X11900Y-28500D03*
X10900Y-28500D03*
X20500Y-15000D03*
X17500Y-15000D03*
X12800Y-15000D03*
X15800Y-15000D03*
X28500Y-15000D03*
X25500Y-15000D03*
X24500Y-15000D03*
X21500Y-15000D03*
G54D13*
X17600Y-28500D03*
G54D14*
X17600Y-27500D03*
X18600Y-28500D03*
X18600Y-27500D03*
X19600Y-28500D03*
X19600Y-27500D03*
X20600Y-28500D03*
X20600Y-27500D03*
X21600Y-28500D03*
X21600Y-27500D03*
G54D13*
X14700Y-12000D03*
G54D14*
X13700Y-12000D03*
X12700Y-12000D03*
X11700Y-12000D03*
X10700Y-12000D03*
G54D15*
X11800Y-19800D03*
X13800Y-19800D03*
G54D11*
X28500Y-16900D03*
G54D12*
X27500Y-16900D03*
X26500Y-16900D03*
X25500Y-16900D03*
X24500Y-16900D03*
X23500Y-16900D03*
X22500Y-16900D03*
X21500Y-16900D03*
X20500Y-16900D03*
X19500Y-16900D03*
X19500Y-19900D03*
X20500Y-19900D03*
X21500Y-19900D03*
X22500Y-19900D03*
X23500Y-19900D03*
X24500Y-19900D03*
X25500Y-19900D03*
X26500Y-19900D03*
X27500Y-19900D03*
X28500Y-19900D03*
G54D11*
X28300Y-22400D03*
G54D12*
X27300Y-22400D03*
X26300Y-22400D03*
X25300Y-22400D03*
X24300Y-22400D03*
X23300Y-22400D03*
X22300Y-22400D03*
X21300Y-22400D03*
X21300Y-25400D03*
X22300Y-25400D03*
X23300Y-25400D03*
X24300Y-25400D03*
X25300Y-25400D03*
X26300Y-25400D03*
X27300Y-25400D03*
X28300Y-25400D03*
G54D11*
X17900Y-22400D03*
G54D12*
X16900Y-22400D03*
X15900Y-22400D03*
X14900Y-22400D03*
X13900Y-22400D03*
X12900Y-22400D03*
X11900Y-22400D03*
X10900Y-22400D03*
X10900Y-25400D03*
X11900Y-25400D03*
X12900Y-25400D03*
X13900Y-25400D03*
X14900Y-25400D03*
X15900Y-25400D03*
X16900Y-25400D03*
X17900Y-25400D03*
X11800Y-17900D03*
X11800Y-16900D03*
X13800Y-17900D03*
X13800Y-16900D03*
G54D13*
X28000Y-11500D03*
G54D14*
X28000Y-12500D03*
X27000Y-11500D03*
X27000Y-12500D03*
X26000Y-11500D03*
X26000Y-12500D03*
X25000Y-11500D03*
X25000Y-12500D03*
X24000Y-11500D03*
X24000Y-12500D03*
X23000Y-11500D03*
X23000Y-12500D03*
X22000Y-11500D03*
X22000Y-12500D03*
X21000Y-11500D03*
X21000Y-12500D03*
X20000Y-11500D03*
X20000Y-12500D03*
X19000Y-11500D03*
X19000Y-12500D03*
X18000Y-11500D03*
X18000Y-12500D03*
X17000Y-11500D03*
X17000Y-12500D03*
X16000Y-11500D03*
X16000Y-12500D03*
M02*
