G04 (created by PCBNEW-RS274X (2011-05-25)-stable) date Ut 23. jún 2015, 15:15:57 CEST*
G01*
G70*
G90*
%MOIN*%
G04 Gerber Fmt 3.4, Leading zero omitted, Abs format*
%FSLAX34Y34*%
G04 APERTURE LIST*
%ADD10C,0.006000*%
%ADD11R,0.055000X0.055000*%
%ADD12C,0.055000*%
%ADD13R,0.060000X0.060000*%
%ADD14C,0.060000*%
%ADD15C,0.070000*%
%ADD16C,0.008000*%
%ADD17C,0.010000*%
G04 APERTURE END LIST*
G54D10*
G54D11*
X28300Y-28500D03*
G54D12*
X27300Y-28500D03*
X26300Y-28500D03*
X25300Y-28500D03*
X24300Y-28500D03*
G54D11*
X14900Y-28500D03*
G54D12*
X13900Y-28500D03*
X12900Y-28500D03*
X11900Y-28500D03*
X10900Y-28500D03*
X20500Y-15000D03*
X17500Y-15000D03*
X12800Y-15000D03*
X15800Y-15000D03*
X28500Y-15000D03*
X25500Y-15000D03*
X24500Y-15000D03*
X21500Y-15000D03*
G54D13*
X17600Y-28500D03*
G54D14*
X17600Y-27500D03*
X18600Y-28500D03*
X18600Y-27500D03*
X19600Y-28500D03*
X19600Y-27500D03*
X20600Y-28500D03*
X20600Y-27500D03*
X21600Y-28500D03*
X21600Y-27500D03*
G54D13*
X14700Y-12000D03*
G54D14*
X13700Y-12000D03*
X12700Y-12000D03*
X11700Y-12000D03*
X10700Y-12000D03*
G54D15*
X11800Y-19800D03*
X13800Y-19800D03*
G54D11*
X28500Y-16900D03*
G54D12*
X27500Y-16900D03*
X26500Y-16900D03*
X25500Y-16900D03*
X24500Y-16900D03*
X23500Y-16900D03*
X22500Y-16900D03*
X21500Y-16900D03*
X20500Y-16900D03*
X19500Y-16900D03*
X19500Y-19900D03*
X20500Y-19900D03*
X21500Y-19900D03*
X22500Y-19900D03*
X23500Y-19900D03*
X24500Y-19900D03*
X25500Y-19900D03*
X26500Y-19900D03*
X27500Y-19900D03*
X28500Y-19900D03*
G54D11*
X28300Y-22400D03*
G54D12*
X27300Y-22400D03*
X26300Y-22400D03*
X25300Y-22400D03*
X24300Y-22400D03*
X23300Y-22400D03*
X22300Y-22400D03*
X21300Y-22400D03*
X21300Y-25400D03*
X22300Y-25400D03*
X23300Y-25400D03*
X24300Y-25400D03*
X25300Y-25400D03*
X26300Y-25400D03*
X27300Y-25400D03*
X28300Y-25400D03*
G54D11*
X17900Y-22400D03*
G54D12*
X16900Y-22400D03*
X15900Y-22400D03*
X14900Y-22400D03*
X13900Y-22400D03*
X12900Y-22400D03*
X11900Y-22400D03*
X10900Y-22400D03*
X10900Y-25400D03*
X11900Y-25400D03*
X12900Y-25400D03*
X13900Y-25400D03*
X14900Y-25400D03*
X15900Y-25400D03*
X16900Y-25400D03*
X17900Y-25400D03*
X11800Y-17900D03*
X11800Y-16900D03*
X13800Y-17900D03*
X13800Y-16900D03*
G54D13*
X28000Y-11500D03*
G54D14*
X28000Y-12500D03*
X27000Y-11500D03*
X27000Y-12500D03*
X26000Y-11500D03*
X26000Y-12500D03*
X25000Y-11500D03*
X25000Y-12500D03*
X24000Y-11500D03*
X24000Y-12500D03*
X23000Y-11500D03*
X23000Y-12500D03*
X22000Y-11500D03*
X22000Y-12500D03*
X21000Y-11500D03*
X21000Y-12500D03*
X20000Y-11500D03*
X20000Y-12500D03*
X19000Y-11500D03*
X19000Y-12500D03*
X18000Y-11500D03*
X18000Y-12500D03*
X17000Y-11500D03*
X17000Y-12500D03*
X16000Y-11500D03*
X16000Y-12500D03*
G54D16*
X10700Y-12000D02*
X10700Y-17900D01*
X18200Y-18600D02*
X19500Y-19900D01*
X11400Y-18600D02*
X18200Y-18600D01*
X10700Y-17900D02*
X11400Y-18600D01*
X21500Y-16900D02*
X21500Y-16500D01*
X12700Y-13500D02*
X12700Y-12000D01*
X15400Y-16200D02*
X12700Y-13500D01*
X21200Y-16200D02*
X15400Y-16200D01*
X21500Y-16500D02*
X21200Y-16200D01*
X23500Y-16900D02*
X23500Y-16100D01*
X14700Y-14700D02*
X14700Y-12000D01*
X15800Y-15800D02*
X14700Y-14700D01*
X23200Y-15800D02*
X15800Y-15800D01*
X23500Y-16100D02*
X23200Y-15800D01*
X12800Y-15000D02*
X13000Y-15000D01*
X25700Y-20700D02*
X26500Y-19900D01*
X24400Y-20700D02*
X25700Y-20700D01*
X24000Y-20300D02*
X24400Y-20700D01*
X24000Y-19400D02*
X24000Y-20300D01*
X23000Y-18400D02*
X24000Y-19400D01*
X16400Y-18400D02*
X23000Y-18400D01*
X13000Y-15000D02*
X16400Y-18400D01*
X27500Y-19900D02*
X28000Y-19400D01*
X28000Y-15500D02*
X28500Y-15000D01*
X28000Y-19400D02*
X28000Y-15500D01*
X20500Y-16900D02*
X20000Y-16400D01*
X11700Y-13100D02*
X11700Y-12000D01*
X15000Y-16400D02*
X11700Y-13100D01*
X20000Y-16400D02*
X15000Y-16400D01*
X22500Y-16900D02*
X22500Y-16300D01*
X13700Y-14100D02*
X13700Y-12000D01*
X15600Y-16000D02*
X13700Y-14100D01*
X22200Y-16000D02*
X15600Y-16000D01*
X22500Y-16300D02*
X22200Y-16000D01*
X17000Y-12500D02*
X17000Y-13100D01*
X24400Y-13900D02*
X25500Y-15000D01*
X17800Y-13900D02*
X24400Y-13900D01*
X17000Y-13100D02*
X17800Y-13900D01*
X20500Y-15000D02*
X20582Y-15000D01*
X24000Y-18400D02*
X25500Y-19900D01*
X24000Y-16200D02*
X24000Y-18400D01*
X23400Y-15600D02*
X24000Y-16200D01*
X21182Y-15600D02*
X23400Y-15600D01*
X20582Y-15000D02*
X21182Y-15600D01*
G54D10*
G36*
X29203Y-29203D02*
X28825Y-29203D01*
X28825Y-25505D01*
X28825Y-25296D01*
X28824Y-25293D01*
X28824Y-22725D01*
X28824Y-22626D01*
X28824Y-22076D01*
X28786Y-21984D01*
X28716Y-21914D01*
X28625Y-21876D01*
X28526Y-21876D01*
X27976Y-21876D01*
X27884Y-21914D01*
X27814Y-21984D01*
X27776Y-22075D01*
X27776Y-22174D01*
X27776Y-22177D01*
X27745Y-22103D01*
X27598Y-21955D01*
X27405Y-21875D01*
X27196Y-21875D01*
X27003Y-21955D01*
X26855Y-22102D01*
X26799Y-22235D01*
X26745Y-22103D01*
X26598Y-21955D01*
X26405Y-21875D01*
X26196Y-21875D01*
X26003Y-21955D01*
X25855Y-22102D01*
X25799Y-22235D01*
X25745Y-22103D01*
X25598Y-21955D01*
X25405Y-21875D01*
X25196Y-21875D01*
X25003Y-21955D01*
X24855Y-22102D01*
X24799Y-22235D01*
X24745Y-22103D01*
X24598Y-21955D01*
X24405Y-21875D01*
X24196Y-21875D01*
X24003Y-21955D01*
X23855Y-22102D01*
X23799Y-22235D01*
X23745Y-22103D01*
X23598Y-21955D01*
X23405Y-21875D01*
X23196Y-21875D01*
X23003Y-21955D01*
X22855Y-22102D01*
X22799Y-22235D01*
X22745Y-22103D01*
X22598Y-21955D01*
X22405Y-21875D01*
X22196Y-21875D01*
X22003Y-21955D01*
X21855Y-22102D01*
X21799Y-22235D01*
X21745Y-22103D01*
X21598Y-21955D01*
X21405Y-21875D01*
X21196Y-21875D01*
X21003Y-21955D01*
X20855Y-22102D01*
X20775Y-22295D01*
X20775Y-22504D01*
X20855Y-22697D01*
X21002Y-22845D01*
X21195Y-22925D01*
X21404Y-22925D01*
X21597Y-22845D01*
X21745Y-22698D01*
X21800Y-22564D01*
X21855Y-22697D01*
X22002Y-22845D01*
X22195Y-22925D01*
X22404Y-22925D01*
X22597Y-22845D01*
X22745Y-22698D01*
X22800Y-22564D01*
X22855Y-22697D01*
X23002Y-22845D01*
X23195Y-22925D01*
X23404Y-22925D01*
X23597Y-22845D01*
X23745Y-22698D01*
X23800Y-22564D01*
X23855Y-22697D01*
X24002Y-22845D01*
X24195Y-22925D01*
X24404Y-22925D01*
X24597Y-22845D01*
X24745Y-22698D01*
X24800Y-22564D01*
X24855Y-22697D01*
X25002Y-22845D01*
X25195Y-22925D01*
X25404Y-22925D01*
X25597Y-22845D01*
X25745Y-22698D01*
X25800Y-22564D01*
X25855Y-22697D01*
X26002Y-22845D01*
X26195Y-22925D01*
X26404Y-22925D01*
X26597Y-22845D01*
X26745Y-22698D01*
X26800Y-22564D01*
X26855Y-22697D01*
X27002Y-22845D01*
X27195Y-22925D01*
X27404Y-22925D01*
X27597Y-22845D01*
X27745Y-22698D01*
X27776Y-22623D01*
X27776Y-22724D01*
X27814Y-22816D01*
X27884Y-22886D01*
X27975Y-22924D01*
X28074Y-22924D01*
X28624Y-22924D01*
X28716Y-22886D01*
X28786Y-22816D01*
X28824Y-22725D01*
X28824Y-25293D01*
X28745Y-25103D01*
X28598Y-24955D01*
X28405Y-24875D01*
X28196Y-24875D01*
X28003Y-24955D01*
X27855Y-25102D01*
X27799Y-25235D01*
X27745Y-25103D01*
X27598Y-24955D01*
X27405Y-24875D01*
X27196Y-24875D01*
X27003Y-24955D01*
X26855Y-25102D01*
X26799Y-25235D01*
X26745Y-25103D01*
X26598Y-24955D01*
X26405Y-24875D01*
X26196Y-24875D01*
X26003Y-24955D01*
X25855Y-25102D01*
X25799Y-25235D01*
X25745Y-25103D01*
X25598Y-24955D01*
X25405Y-24875D01*
X25196Y-24875D01*
X25003Y-24955D01*
X24855Y-25102D01*
X24799Y-25235D01*
X24745Y-25103D01*
X24598Y-24955D01*
X24405Y-24875D01*
X24196Y-24875D01*
X24003Y-24955D01*
X23855Y-25102D01*
X23799Y-25235D01*
X23745Y-25103D01*
X23598Y-24955D01*
X23405Y-24875D01*
X23196Y-24875D01*
X23003Y-24955D01*
X22855Y-25102D01*
X22799Y-25235D01*
X22745Y-25103D01*
X22598Y-24955D01*
X22405Y-24875D01*
X22196Y-24875D01*
X22003Y-24955D01*
X21855Y-25102D01*
X21796Y-25242D01*
X21752Y-25133D01*
X21661Y-25110D01*
X21590Y-25181D01*
X21590Y-25039D01*
X21567Y-24948D01*
X21374Y-24881D01*
X21170Y-24892D01*
X21033Y-24948D01*
X21010Y-25039D01*
X21300Y-25329D01*
X21590Y-25039D01*
X21590Y-25181D01*
X21371Y-25400D01*
X21661Y-25690D01*
X21752Y-25667D01*
X21793Y-25548D01*
X21855Y-25697D01*
X22002Y-25845D01*
X22195Y-25925D01*
X22404Y-25925D01*
X22597Y-25845D01*
X22745Y-25698D01*
X22800Y-25564D01*
X22855Y-25697D01*
X23002Y-25845D01*
X23195Y-25925D01*
X23404Y-25925D01*
X23597Y-25845D01*
X23745Y-25698D01*
X23800Y-25564D01*
X23855Y-25697D01*
X24002Y-25845D01*
X24195Y-25925D01*
X24404Y-25925D01*
X24597Y-25845D01*
X24745Y-25698D01*
X24800Y-25564D01*
X24855Y-25697D01*
X25002Y-25845D01*
X25195Y-25925D01*
X25404Y-25925D01*
X25597Y-25845D01*
X25745Y-25698D01*
X25800Y-25564D01*
X25855Y-25697D01*
X26002Y-25845D01*
X26195Y-25925D01*
X26404Y-25925D01*
X26597Y-25845D01*
X26745Y-25698D01*
X26800Y-25564D01*
X26855Y-25697D01*
X27002Y-25845D01*
X27195Y-25925D01*
X27404Y-25925D01*
X27597Y-25845D01*
X27745Y-25698D01*
X27800Y-25564D01*
X27855Y-25697D01*
X28002Y-25845D01*
X28195Y-25925D01*
X28404Y-25925D01*
X28597Y-25845D01*
X28745Y-25698D01*
X28825Y-25505D01*
X28825Y-29203D01*
X28824Y-29203D01*
X28824Y-28825D01*
X28824Y-28726D01*
X28824Y-28176D01*
X28786Y-28084D01*
X28716Y-28014D01*
X28625Y-27976D01*
X28526Y-27976D01*
X27976Y-27976D01*
X27884Y-28014D01*
X27814Y-28084D01*
X27776Y-28175D01*
X27776Y-28274D01*
X27776Y-28277D01*
X27745Y-28203D01*
X27598Y-28055D01*
X27405Y-27975D01*
X27196Y-27975D01*
X27003Y-28055D01*
X26855Y-28202D01*
X26799Y-28335D01*
X26745Y-28203D01*
X26598Y-28055D01*
X26405Y-27975D01*
X26196Y-27975D01*
X26003Y-28055D01*
X25855Y-28202D01*
X25799Y-28335D01*
X25745Y-28203D01*
X25598Y-28055D01*
X25405Y-27975D01*
X25196Y-27975D01*
X25003Y-28055D01*
X24855Y-28202D01*
X24796Y-28342D01*
X24752Y-28233D01*
X24661Y-28210D01*
X24590Y-28281D01*
X24590Y-28139D01*
X24567Y-28048D01*
X24374Y-27981D01*
X24170Y-27992D01*
X24033Y-28048D01*
X24010Y-28139D01*
X24300Y-28429D01*
X24590Y-28139D01*
X24590Y-28281D01*
X24371Y-28500D01*
X24661Y-28790D01*
X24752Y-28767D01*
X24793Y-28648D01*
X24855Y-28797D01*
X25002Y-28945D01*
X25195Y-29025D01*
X25404Y-29025D01*
X25597Y-28945D01*
X25745Y-28798D01*
X25800Y-28664D01*
X25855Y-28797D01*
X26002Y-28945D01*
X26195Y-29025D01*
X26404Y-29025D01*
X26597Y-28945D01*
X26745Y-28798D01*
X26800Y-28664D01*
X26855Y-28797D01*
X27002Y-28945D01*
X27195Y-29025D01*
X27404Y-29025D01*
X27597Y-28945D01*
X27745Y-28798D01*
X27776Y-28723D01*
X27776Y-28824D01*
X27814Y-28916D01*
X27884Y-28986D01*
X27975Y-29024D01*
X28074Y-29024D01*
X28624Y-29024D01*
X28716Y-28986D01*
X28786Y-28916D01*
X28824Y-28825D01*
X28824Y-29203D01*
X24590Y-29203D01*
X24590Y-28861D01*
X24300Y-28571D01*
X24229Y-28642D01*
X24229Y-28500D01*
X23939Y-28210D01*
X23848Y-28233D01*
X23781Y-28426D01*
X23792Y-28630D01*
X23848Y-28767D01*
X23939Y-28790D01*
X24229Y-28500D01*
X24229Y-28642D01*
X24010Y-28861D01*
X24033Y-28952D01*
X24226Y-29019D01*
X24430Y-29008D01*
X24567Y-28952D01*
X24590Y-28861D01*
X24590Y-29203D01*
X22149Y-29203D01*
X22149Y-27609D01*
X22149Y-27391D01*
X22065Y-27189D01*
X21911Y-27035D01*
X21709Y-26951D01*
X21590Y-26951D01*
X21590Y-25761D01*
X21300Y-25471D01*
X21229Y-25542D01*
X21229Y-25400D01*
X20939Y-25110D01*
X20848Y-25133D01*
X20781Y-25326D01*
X20792Y-25530D01*
X20848Y-25667D01*
X20939Y-25690D01*
X21229Y-25400D01*
X21229Y-25542D01*
X21010Y-25761D01*
X21033Y-25852D01*
X21226Y-25919D01*
X21430Y-25908D01*
X21567Y-25852D01*
X21590Y-25761D01*
X21590Y-26951D01*
X21491Y-26951D01*
X21289Y-27035D01*
X21135Y-27189D01*
X21100Y-27273D01*
X21065Y-27189D01*
X20911Y-27035D01*
X20709Y-26951D01*
X20491Y-26951D01*
X20289Y-27035D01*
X20135Y-27189D01*
X20100Y-27273D01*
X20065Y-27189D01*
X19911Y-27035D01*
X19709Y-26951D01*
X19491Y-26951D01*
X19289Y-27035D01*
X19135Y-27189D01*
X19100Y-27273D01*
X19065Y-27189D01*
X18911Y-27035D01*
X18709Y-26951D01*
X18491Y-26951D01*
X18425Y-26978D01*
X18425Y-25505D01*
X18425Y-25296D01*
X18424Y-25293D01*
X18424Y-22725D01*
X18424Y-22626D01*
X18424Y-22076D01*
X18386Y-21984D01*
X18316Y-21914D01*
X18225Y-21876D01*
X18126Y-21876D01*
X17576Y-21876D01*
X17484Y-21914D01*
X17414Y-21984D01*
X17376Y-22075D01*
X17376Y-22174D01*
X17376Y-22177D01*
X17345Y-22103D01*
X17198Y-21955D01*
X17005Y-21875D01*
X16796Y-21875D01*
X16603Y-21955D01*
X16455Y-22102D01*
X16399Y-22235D01*
X16345Y-22103D01*
X16198Y-21955D01*
X16005Y-21875D01*
X15796Y-21875D01*
X15603Y-21955D01*
X15455Y-22102D01*
X15399Y-22235D01*
X15345Y-22103D01*
X15198Y-21955D01*
X15005Y-21875D01*
X14796Y-21875D01*
X14603Y-21955D01*
X14455Y-22102D01*
X14399Y-22235D01*
X14399Y-19919D01*
X14399Y-19681D01*
X14308Y-19461D01*
X14139Y-19292D01*
X13919Y-19201D01*
X13681Y-19201D01*
X13461Y-19292D01*
X13292Y-19461D01*
X13201Y-19681D01*
X13201Y-19919D01*
X13292Y-20139D01*
X13461Y-20308D01*
X13681Y-20399D01*
X13919Y-20399D01*
X14139Y-20308D01*
X14308Y-20139D01*
X14399Y-19919D01*
X14399Y-22235D01*
X14345Y-22103D01*
X14198Y-21955D01*
X14005Y-21875D01*
X13796Y-21875D01*
X13603Y-21955D01*
X13455Y-22102D01*
X13399Y-22235D01*
X13345Y-22103D01*
X13198Y-21955D01*
X13005Y-21875D01*
X12796Y-21875D01*
X12603Y-21955D01*
X12455Y-22102D01*
X12399Y-22235D01*
X12399Y-19919D01*
X12399Y-19681D01*
X12308Y-19461D01*
X12139Y-19292D01*
X11919Y-19201D01*
X11681Y-19201D01*
X11461Y-19292D01*
X11292Y-19461D01*
X11201Y-19681D01*
X11201Y-19919D01*
X11292Y-20139D01*
X11461Y-20308D01*
X11681Y-20399D01*
X11919Y-20399D01*
X12139Y-20308D01*
X12308Y-20139D01*
X12399Y-19919D01*
X12399Y-22235D01*
X12345Y-22103D01*
X12198Y-21955D01*
X12005Y-21875D01*
X11796Y-21875D01*
X11603Y-21955D01*
X11455Y-22102D01*
X11399Y-22235D01*
X11345Y-22103D01*
X11198Y-21955D01*
X11005Y-21875D01*
X10796Y-21875D01*
X10603Y-21955D01*
X10455Y-22102D01*
X10375Y-22295D01*
X10375Y-22504D01*
X10455Y-22697D01*
X10602Y-22845D01*
X10795Y-22925D01*
X11004Y-22925D01*
X11197Y-22845D01*
X11345Y-22698D01*
X11400Y-22564D01*
X11455Y-22697D01*
X11602Y-22845D01*
X11795Y-22925D01*
X12004Y-22925D01*
X12197Y-22845D01*
X12345Y-22698D01*
X12400Y-22564D01*
X12455Y-22697D01*
X12602Y-22845D01*
X12795Y-22925D01*
X13004Y-22925D01*
X13197Y-22845D01*
X13345Y-22698D01*
X13400Y-22564D01*
X13455Y-22697D01*
X13602Y-22845D01*
X13795Y-22925D01*
X14004Y-22925D01*
X14197Y-22845D01*
X14345Y-22698D01*
X14400Y-22564D01*
X14455Y-22697D01*
X14602Y-22845D01*
X14795Y-22925D01*
X15004Y-22925D01*
X15197Y-22845D01*
X15345Y-22698D01*
X15400Y-22564D01*
X15455Y-22697D01*
X15602Y-22845D01*
X15795Y-22925D01*
X16004Y-22925D01*
X16197Y-22845D01*
X16345Y-22698D01*
X16400Y-22564D01*
X16455Y-22697D01*
X16602Y-22845D01*
X16795Y-22925D01*
X17004Y-22925D01*
X17197Y-22845D01*
X17345Y-22698D01*
X17376Y-22623D01*
X17376Y-22724D01*
X17414Y-22816D01*
X17484Y-22886D01*
X17575Y-22924D01*
X17674Y-22924D01*
X18224Y-22924D01*
X18316Y-22886D01*
X18386Y-22816D01*
X18424Y-22725D01*
X18424Y-25293D01*
X18345Y-25103D01*
X18198Y-24955D01*
X18005Y-24875D01*
X17796Y-24875D01*
X17603Y-24955D01*
X17455Y-25102D01*
X17399Y-25235D01*
X17345Y-25103D01*
X17198Y-24955D01*
X17005Y-24875D01*
X16796Y-24875D01*
X16603Y-24955D01*
X16455Y-25102D01*
X16399Y-25235D01*
X16345Y-25103D01*
X16198Y-24955D01*
X16005Y-24875D01*
X15796Y-24875D01*
X15603Y-24955D01*
X15455Y-25102D01*
X15399Y-25235D01*
X15345Y-25103D01*
X15198Y-24955D01*
X15005Y-24875D01*
X14796Y-24875D01*
X14603Y-24955D01*
X14455Y-25102D01*
X14399Y-25235D01*
X14345Y-25103D01*
X14198Y-24955D01*
X14005Y-24875D01*
X13796Y-24875D01*
X13603Y-24955D01*
X13455Y-25102D01*
X13399Y-25235D01*
X13345Y-25103D01*
X13198Y-24955D01*
X13005Y-24875D01*
X12796Y-24875D01*
X12603Y-24955D01*
X12455Y-25102D01*
X12399Y-25235D01*
X12345Y-25103D01*
X12198Y-24955D01*
X12005Y-24875D01*
X11796Y-24875D01*
X11603Y-24955D01*
X11455Y-25102D01*
X11396Y-25242D01*
X11352Y-25133D01*
X11261Y-25110D01*
X11190Y-25181D01*
X11190Y-25039D01*
X11167Y-24948D01*
X10974Y-24881D01*
X10770Y-24892D01*
X10633Y-24948D01*
X10610Y-25039D01*
X10900Y-25329D01*
X11190Y-25039D01*
X11190Y-25181D01*
X10971Y-25400D01*
X11261Y-25690D01*
X11352Y-25667D01*
X11393Y-25548D01*
X11455Y-25697D01*
X11602Y-25845D01*
X11795Y-25925D01*
X12004Y-25925D01*
X12197Y-25845D01*
X12345Y-25698D01*
X12400Y-25564D01*
X12455Y-25697D01*
X12602Y-25845D01*
X12795Y-25925D01*
X13004Y-25925D01*
X13197Y-25845D01*
X13345Y-25698D01*
X13400Y-25564D01*
X13455Y-25697D01*
X13602Y-25845D01*
X13795Y-25925D01*
X14004Y-25925D01*
X14197Y-25845D01*
X14345Y-25698D01*
X14400Y-25564D01*
X14455Y-25697D01*
X14602Y-25845D01*
X14795Y-25925D01*
X15004Y-25925D01*
X15197Y-25845D01*
X15345Y-25698D01*
X15400Y-25564D01*
X15455Y-25697D01*
X15602Y-25845D01*
X15795Y-25925D01*
X16004Y-25925D01*
X16197Y-25845D01*
X16345Y-25698D01*
X16400Y-25564D01*
X16455Y-25697D01*
X16602Y-25845D01*
X16795Y-25925D01*
X17004Y-25925D01*
X17197Y-25845D01*
X17345Y-25698D01*
X17400Y-25564D01*
X17455Y-25697D01*
X17602Y-25845D01*
X17795Y-25925D01*
X18004Y-25925D01*
X18197Y-25845D01*
X18345Y-25698D01*
X18425Y-25505D01*
X18425Y-26978D01*
X18289Y-27035D01*
X18135Y-27189D01*
X18100Y-27273D01*
X18065Y-27189D01*
X17911Y-27035D01*
X17709Y-26951D01*
X17491Y-26951D01*
X17289Y-27035D01*
X17135Y-27189D01*
X17051Y-27391D01*
X17051Y-27609D01*
X17135Y-27811D01*
X17274Y-27950D01*
X17251Y-27951D01*
X17159Y-27989D01*
X17089Y-28059D01*
X17051Y-28150D01*
X17051Y-28249D01*
X17050Y-28388D01*
X17112Y-28450D01*
X17500Y-28450D01*
X17550Y-28450D01*
X17650Y-28450D01*
X17650Y-28550D01*
X17650Y-28600D01*
X17650Y-28988D01*
X17712Y-29050D01*
X17949Y-29049D01*
X18041Y-29011D01*
X18111Y-28941D01*
X18149Y-28850D01*
X18149Y-28787D01*
X18222Y-28808D01*
X18529Y-28500D01*
X18222Y-28192D01*
X18149Y-28212D01*
X18149Y-28150D01*
X18111Y-28059D01*
X18041Y-27989D01*
X17949Y-27951D01*
X17925Y-27950D01*
X18065Y-27811D01*
X18100Y-27726D01*
X18135Y-27811D01*
X18289Y-27965D01*
X18380Y-28002D01*
X18319Y-28028D01*
X18292Y-28122D01*
X18600Y-28429D01*
X18908Y-28122D01*
X18881Y-28028D01*
X18815Y-28004D01*
X18911Y-27965D01*
X19065Y-27811D01*
X19100Y-27726D01*
X19135Y-27811D01*
X19289Y-27965D01*
X19380Y-28002D01*
X19319Y-28028D01*
X19292Y-28122D01*
X19600Y-28429D01*
X19908Y-28122D01*
X19881Y-28028D01*
X19815Y-28004D01*
X19911Y-27965D01*
X20065Y-27811D01*
X20100Y-27726D01*
X20135Y-27811D01*
X20289Y-27965D01*
X20380Y-28002D01*
X20319Y-28028D01*
X20292Y-28122D01*
X20600Y-28429D01*
X20908Y-28122D01*
X20881Y-28028D01*
X20815Y-28004D01*
X20911Y-27965D01*
X21065Y-27811D01*
X21100Y-27726D01*
X21135Y-27811D01*
X21289Y-27965D01*
X21380Y-28002D01*
X21319Y-28028D01*
X21292Y-28122D01*
X21600Y-28429D01*
X21908Y-28122D01*
X21881Y-28028D01*
X21815Y-28004D01*
X21911Y-27965D01*
X22065Y-27811D01*
X22149Y-27609D01*
X22149Y-29203D01*
X22143Y-29203D01*
X22143Y-28579D01*
X22132Y-28366D01*
X22072Y-28219D01*
X21978Y-28192D01*
X21671Y-28500D01*
X21978Y-28808D01*
X22072Y-28781D01*
X22143Y-28579D01*
X22143Y-29203D01*
X21908Y-29203D01*
X21908Y-28878D01*
X21600Y-28571D01*
X21529Y-28641D01*
X21529Y-28500D01*
X21222Y-28192D01*
X21128Y-28219D01*
X21102Y-28292D01*
X21072Y-28219D01*
X20978Y-28192D01*
X20671Y-28500D01*
X20978Y-28808D01*
X21072Y-28781D01*
X21097Y-28707D01*
X21128Y-28781D01*
X21222Y-28808D01*
X21529Y-28500D01*
X21529Y-28641D01*
X21292Y-28878D01*
X21319Y-28972D01*
X21521Y-29043D01*
X21734Y-29032D01*
X21881Y-28972D01*
X21908Y-28878D01*
X21908Y-29203D01*
X20908Y-29203D01*
X20908Y-28878D01*
X20600Y-28571D01*
X20529Y-28641D01*
X20529Y-28500D01*
X20222Y-28192D01*
X20128Y-28219D01*
X20102Y-28292D01*
X20072Y-28219D01*
X19978Y-28192D01*
X19671Y-28500D01*
X19978Y-28808D01*
X20072Y-28781D01*
X20097Y-28707D01*
X20128Y-28781D01*
X20222Y-28808D01*
X20529Y-28500D01*
X20529Y-28641D01*
X20292Y-28878D01*
X20319Y-28972D01*
X20521Y-29043D01*
X20734Y-29032D01*
X20881Y-28972D01*
X20908Y-28878D01*
X20908Y-29203D01*
X19908Y-29203D01*
X19908Y-28878D01*
X19600Y-28571D01*
X19529Y-28641D01*
X19529Y-28500D01*
X19222Y-28192D01*
X19128Y-28219D01*
X19102Y-28292D01*
X19072Y-28219D01*
X18978Y-28192D01*
X18671Y-28500D01*
X18978Y-28808D01*
X19072Y-28781D01*
X19097Y-28707D01*
X19128Y-28781D01*
X19222Y-28808D01*
X19529Y-28500D01*
X19529Y-28641D01*
X19292Y-28878D01*
X19319Y-28972D01*
X19521Y-29043D01*
X19734Y-29032D01*
X19881Y-28972D01*
X19908Y-28878D01*
X19908Y-29203D01*
X18908Y-29203D01*
X18908Y-28878D01*
X18600Y-28571D01*
X18292Y-28878D01*
X18319Y-28972D01*
X18521Y-29043D01*
X18734Y-29032D01*
X18881Y-28972D01*
X18908Y-28878D01*
X18908Y-29203D01*
X17550Y-29203D01*
X17550Y-28988D01*
X17550Y-28550D01*
X17112Y-28550D01*
X17050Y-28612D01*
X17051Y-28751D01*
X17051Y-28850D01*
X17089Y-28941D01*
X17159Y-29011D01*
X17251Y-29049D01*
X17488Y-29050D01*
X17550Y-28988D01*
X17550Y-29203D01*
X15424Y-29203D01*
X15424Y-28825D01*
X15424Y-28726D01*
X15424Y-28176D01*
X15386Y-28084D01*
X15316Y-28014D01*
X15225Y-27976D01*
X15126Y-27976D01*
X14576Y-27976D01*
X14484Y-28014D01*
X14414Y-28084D01*
X14376Y-28175D01*
X14376Y-28274D01*
X14376Y-28277D01*
X14345Y-28203D01*
X14198Y-28055D01*
X14005Y-27975D01*
X13796Y-27975D01*
X13603Y-28055D01*
X13455Y-28202D01*
X13399Y-28335D01*
X13345Y-28203D01*
X13198Y-28055D01*
X13005Y-27975D01*
X12796Y-27975D01*
X12603Y-28055D01*
X12455Y-28202D01*
X12399Y-28335D01*
X12345Y-28203D01*
X12198Y-28055D01*
X12005Y-27975D01*
X11796Y-27975D01*
X11603Y-28055D01*
X11455Y-28202D01*
X11396Y-28342D01*
X11352Y-28233D01*
X11261Y-28210D01*
X11190Y-28281D01*
X11190Y-28139D01*
X11190Y-25761D01*
X10900Y-25471D01*
X10829Y-25542D01*
X10829Y-25400D01*
X10539Y-25110D01*
X10448Y-25133D01*
X10381Y-25326D01*
X10392Y-25530D01*
X10448Y-25667D01*
X10539Y-25690D01*
X10829Y-25400D01*
X10829Y-25542D01*
X10610Y-25761D01*
X10633Y-25852D01*
X10826Y-25919D01*
X11030Y-25908D01*
X11167Y-25852D01*
X11190Y-25761D01*
X11190Y-28139D01*
X11167Y-28048D01*
X10974Y-27981D01*
X10770Y-27992D01*
X10633Y-28048D01*
X10610Y-28139D01*
X10900Y-28429D01*
X11190Y-28139D01*
X11190Y-28281D01*
X10971Y-28500D01*
X11261Y-28790D01*
X11352Y-28767D01*
X11393Y-28648D01*
X11455Y-28797D01*
X11602Y-28945D01*
X11795Y-29025D01*
X12004Y-29025D01*
X12197Y-28945D01*
X12345Y-28798D01*
X12400Y-28664D01*
X12455Y-28797D01*
X12602Y-28945D01*
X12795Y-29025D01*
X13004Y-29025D01*
X13197Y-28945D01*
X13345Y-28798D01*
X13400Y-28664D01*
X13455Y-28797D01*
X13602Y-28945D01*
X13795Y-29025D01*
X14004Y-29025D01*
X14197Y-28945D01*
X14345Y-28798D01*
X14376Y-28723D01*
X14376Y-28824D01*
X14414Y-28916D01*
X14484Y-28986D01*
X14575Y-29024D01*
X14674Y-29024D01*
X15224Y-29024D01*
X15316Y-28986D01*
X15386Y-28916D01*
X15424Y-28825D01*
X15424Y-29203D01*
X11190Y-29203D01*
X11190Y-28861D01*
X10900Y-28571D01*
X10829Y-28642D01*
X10829Y-28500D01*
X10539Y-28210D01*
X10448Y-28233D01*
X10381Y-28426D01*
X10392Y-28630D01*
X10448Y-28767D01*
X10539Y-28790D01*
X10829Y-28500D01*
X10829Y-28642D01*
X10610Y-28861D01*
X10633Y-28952D01*
X10826Y-29019D01*
X11030Y-29008D01*
X11167Y-28952D01*
X11190Y-28861D01*
X11190Y-29203D01*
X10168Y-29203D01*
X10168Y-12149D01*
X10235Y-12311D01*
X10389Y-12465D01*
X10410Y-12473D01*
X10410Y-17900D01*
X10432Y-18011D01*
X10495Y-18105D01*
X11194Y-18804D01*
X11195Y-18805D01*
X11288Y-18867D01*
X11289Y-18868D01*
X11399Y-18889D01*
X11400Y-18890D01*
X18080Y-18890D01*
X18977Y-19787D01*
X18975Y-19795D01*
X18975Y-20004D01*
X19055Y-20197D01*
X19202Y-20345D01*
X19395Y-20425D01*
X19604Y-20425D01*
X19797Y-20345D01*
X19945Y-20198D01*
X20000Y-20064D01*
X20055Y-20197D01*
X20202Y-20345D01*
X20395Y-20425D01*
X20604Y-20425D01*
X20797Y-20345D01*
X20945Y-20198D01*
X21000Y-20064D01*
X21055Y-20197D01*
X21202Y-20345D01*
X21395Y-20425D01*
X21604Y-20425D01*
X21797Y-20345D01*
X21945Y-20198D01*
X22000Y-20064D01*
X22055Y-20197D01*
X22202Y-20345D01*
X22395Y-20425D01*
X22604Y-20425D01*
X22797Y-20345D01*
X22945Y-20198D01*
X23000Y-20064D01*
X23055Y-20197D01*
X23202Y-20345D01*
X23395Y-20425D01*
X23604Y-20425D01*
X23724Y-20374D01*
X23732Y-20411D01*
X23795Y-20505D01*
X24194Y-20905D01*
X24195Y-20905D01*
X24288Y-20968D01*
X24289Y-20968D01*
X24306Y-20971D01*
X24400Y-20990D01*
X25700Y-20990D01*
X25811Y-20968D01*
X25905Y-20905D01*
X26387Y-20422D01*
X26395Y-20425D01*
X26604Y-20425D01*
X26797Y-20345D01*
X26945Y-20198D01*
X27000Y-20064D01*
X27055Y-20197D01*
X27202Y-20345D01*
X27395Y-20425D01*
X27604Y-20425D01*
X27797Y-20345D01*
X27945Y-20198D01*
X28000Y-20064D01*
X28055Y-20197D01*
X28202Y-20345D01*
X28395Y-20425D01*
X28604Y-20425D01*
X28797Y-20345D01*
X28945Y-20198D01*
X29025Y-20005D01*
X29025Y-19796D01*
X28945Y-19603D01*
X28798Y-19455D01*
X28605Y-19375D01*
X28396Y-19375D01*
X28285Y-19420D01*
X28290Y-19400D01*
X28290Y-17424D01*
X28824Y-17424D01*
X28916Y-17386D01*
X28986Y-17316D01*
X29024Y-17225D01*
X29024Y-17126D01*
X29024Y-16576D01*
X28986Y-16484D01*
X28916Y-16414D01*
X28825Y-16376D01*
X28726Y-16376D01*
X28290Y-16376D01*
X28290Y-15620D01*
X28387Y-15522D01*
X28395Y-15525D01*
X28604Y-15525D01*
X28797Y-15445D01*
X28945Y-15298D01*
X29025Y-15105D01*
X29025Y-14896D01*
X28945Y-14703D01*
X28798Y-14555D01*
X28605Y-14475D01*
X28549Y-14475D01*
X28549Y-12609D01*
X28549Y-12391D01*
X28465Y-12189D01*
X28325Y-12049D01*
X28349Y-12049D01*
X28441Y-12011D01*
X28511Y-11941D01*
X28549Y-11850D01*
X28549Y-11751D01*
X28549Y-11151D01*
X28511Y-11059D01*
X28441Y-10989D01*
X28350Y-10951D01*
X28251Y-10951D01*
X27651Y-10951D01*
X27559Y-10989D01*
X27489Y-11059D01*
X27451Y-11150D01*
X27451Y-11175D01*
X27311Y-11035D01*
X27109Y-10951D01*
X26891Y-10951D01*
X26689Y-11035D01*
X26535Y-11189D01*
X26500Y-11273D01*
X26465Y-11189D01*
X26311Y-11035D01*
X26109Y-10951D01*
X25891Y-10951D01*
X25689Y-11035D01*
X25535Y-11189D01*
X25500Y-11273D01*
X25465Y-11189D01*
X25311Y-11035D01*
X25109Y-10951D01*
X24891Y-10951D01*
X24689Y-11035D01*
X24535Y-11189D01*
X24500Y-11273D01*
X24465Y-11189D01*
X24311Y-11035D01*
X24109Y-10951D01*
X23891Y-10951D01*
X23689Y-11035D01*
X23535Y-11189D01*
X23500Y-11273D01*
X23465Y-11189D01*
X23311Y-11035D01*
X23109Y-10951D01*
X22891Y-10951D01*
X22689Y-11035D01*
X22535Y-11189D01*
X22500Y-11273D01*
X22465Y-11189D01*
X22311Y-11035D01*
X22109Y-10951D01*
X21891Y-10951D01*
X21689Y-11035D01*
X21535Y-11189D01*
X21500Y-11273D01*
X21465Y-11189D01*
X21311Y-11035D01*
X21109Y-10951D01*
X20891Y-10951D01*
X20689Y-11035D01*
X20535Y-11189D01*
X20500Y-11273D01*
X20465Y-11189D01*
X20311Y-11035D01*
X20109Y-10951D01*
X19891Y-10951D01*
X19689Y-11035D01*
X19535Y-11189D01*
X19500Y-11273D01*
X19465Y-11189D01*
X19311Y-11035D01*
X19109Y-10951D01*
X18891Y-10951D01*
X18689Y-11035D01*
X18535Y-11189D01*
X18500Y-11273D01*
X18465Y-11189D01*
X18311Y-11035D01*
X18109Y-10951D01*
X17891Y-10951D01*
X17689Y-11035D01*
X17535Y-11189D01*
X17500Y-11273D01*
X17465Y-11189D01*
X17311Y-11035D01*
X17109Y-10951D01*
X16891Y-10951D01*
X16689Y-11035D01*
X16535Y-11189D01*
X16500Y-11273D01*
X16465Y-11189D01*
X16311Y-11035D01*
X16109Y-10951D01*
X15891Y-10951D01*
X15689Y-11035D01*
X15535Y-11189D01*
X15451Y-11391D01*
X15451Y-11609D01*
X15535Y-11811D01*
X15689Y-11965D01*
X15773Y-12000D01*
X15689Y-12035D01*
X15535Y-12189D01*
X15451Y-12391D01*
X15451Y-12609D01*
X15535Y-12811D01*
X15689Y-12965D01*
X15891Y-13049D01*
X16109Y-13049D01*
X16311Y-12965D01*
X16465Y-12811D01*
X16500Y-12726D01*
X16535Y-12811D01*
X16689Y-12965D01*
X16710Y-12973D01*
X16710Y-13100D01*
X16732Y-13211D01*
X16795Y-13305D01*
X17595Y-14105D01*
X17689Y-14168D01*
X17800Y-14190D01*
X24279Y-14190D01*
X24564Y-14475D01*
X24396Y-14475D01*
X24203Y-14555D01*
X24055Y-14702D01*
X23975Y-14895D01*
X23975Y-15104D01*
X24055Y-15297D01*
X24202Y-15445D01*
X24395Y-15525D01*
X24604Y-15525D01*
X24797Y-15445D01*
X24945Y-15298D01*
X25000Y-15164D01*
X25055Y-15297D01*
X25202Y-15445D01*
X25395Y-15525D01*
X25604Y-15525D01*
X25797Y-15445D01*
X25945Y-15298D01*
X26025Y-15105D01*
X26025Y-14896D01*
X25945Y-14703D01*
X25798Y-14555D01*
X25605Y-14475D01*
X25396Y-14475D01*
X25388Y-14478D01*
X24605Y-13695D01*
X24511Y-13632D01*
X24400Y-13610D01*
X17920Y-13610D01*
X17290Y-12980D01*
X17290Y-12973D01*
X17311Y-12965D01*
X17465Y-12811D01*
X17500Y-12726D01*
X17535Y-12811D01*
X17689Y-12965D01*
X17891Y-13049D01*
X18109Y-13049D01*
X18311Y-12965D01*
X18465Y-12811D01*
X18500Y-12726D01*
X18535Y-12811D01*
X18689Y-12965D01*
X18891Y-13049D01*
X19109Y-13049D01*
X19311Y-12965D01*
X19465Y-12811D01*
X19500Y-12726D01*
X19535Y-12811D01*
X19689Y-12965D01*
X19891Y-13049D01*
X20109Y-13049D01*
X20311Y-12965D01*
X20465Y-12811D01*
X20500Y-12726D01*
X20535Y-12811D01*
X20689Y-12965D01*
X20891Y-13049D01*
X21109Y-13049D01*
X21311Y-12965D01*
X21465Y-12811D01*
X21500Y-12726D01*
X21535Y-12811D01*
X21689Y-12965D01*
X21891Y-13049D01*
X22109Y-13049D01*
X22311Y-12965D01*
X22465Y-12811D01*
X22500Y-12726D01*
X22535Y-12811D01*
X22689Y-12965D01*
X22891Y-13049D01*
X23109Y-13049D01*
X23311Y-12965D01*
X23465Y-12811D01*
X23500Y-12726D01*
X23535Y-12811D01*
X23689Y-12965D01*
X23891Y-13049D01*
X24109Y-13049D01*
X24311Y-12965D01*
X24465Y-12811D01*
X24500Y-12726D01*
X24535Y-12811D01*
X24689Y-12965D01*
X24891Y-13049D01*
X25109Y-13049D01*
X25311Y-12965D01*
X25465Y-12811D01*
X25500Y-12726D01*
X25535Y-12811D01*
X25689Y-12965D01*
X25891Y-13049D01*
X26109Y-13049D01*
X26311Y-12965D01*
X26465Y-12811D01*
X26500Y-12726D01*
X26535Y-12811D01*
X26689Y-12965D01*
X26891Y-13049D01*
X27109Y-13049D01*
X27311Y-12965D01*
X27465Y-12811D01*
X27500Y-12726D01*
X27535Y-12811D01*
X27689Y-12965D01*
X27891Y-13049D01*
X28109Y-13049D01*
X28311Y-12965D01*
X28465Y-12811D01*
X28549Y-12609D01*
X28549Y-14475D01*
X28396Y-14475D01*
X28203Y-14555D01*
X28055Y-14702D01*
X27975Y-14895D01*
X27975Y-15104D01*
X27978Y-15111D01*
X27795Y-15295D01*
X27732Y-15389D01*
X27710Y-15500D01*
X27710Y-16418D01*
X27605Y-16375D01*
X27396Y-16375D01*
X27203Y-16455D01*
X27055Y-16602D01*
X26999Y-16735D01*
X26945Y-16603D01*
X26798Y-16455D01*
X26605Y-16375D01*
X26396Y-16375D01*
X26203Y-16455D01*
X26055Y-16602D01*
X25999Y-16735D01*
X25945Y-16603D01*
X25798Y-16455D01*
X25605Y-16375D01*
X25396Y-16375D01*
X25203Y-16455D01*
X25055Y-16602D01*
X24999Y-16735D01*
X24945Y-16603D01*
X24798Y-16455D01*
X24605Y-16375D01*
X24396Y-16375D01*
X24290Y-16418D01*
X24290Y-16200D01*
X24268Y-16089D01*
X24205Y-15995D01*
X23605Y-15395D01*
X23511Y-15332D01*
X23400Y-15310D01*
X21932Y-15310D01*
X21945Y-15298D01*
X22025Y-15105D01*
X22025Y-14896D01*
X21945Y-14703D01*
X21798Y-14555D01*
X21605Y-14475D01*
X21396Y-14475D01*
X21203Y-14555D01*
X21055Y-14702D01*
X20999Y-14835D01*
X20945Y-14703D01*
X20798Y-14555D01*
X20605Y-14475D01*
X20396Y-14475D01*
X20203Y-14555D01*
X20055Y-14702D01*
X19975Y-14895D01*
X19975Y-15104D01*
X20055Y-15297D01*
X20202Y-15445D01*
X20358Y-15510D01*
X17640Y-15510D01*
X17797Y-15445D01*
X17945Y-15298D01*
X18025Y-15105D01*
X18025Y-14896D01*
X17945Y-14703D01*
X17798Y-14555D01*
X17605Y-14475D01*
X17396Y-14475D01*
X17203Y-14555D01*
X17055Y-14702D01*
X16975Y-14895D01*
X16975Y-15104D01*
X17055Y-15297D01*
X17202Y-15445D01*
X17358Y-15510D01*
X15940Y-15510D01*
X16097Y-15445D01*
X16245Y-15298D01*
X16325Y-15105D01*
X16325Y-14896D01*
X16245Y-14703D01*
X16098Y-14555D01*
X15905Y-14475D01*
X15696Y-14475D01*
X15503Y-14555D01*
X15355Y-14702D01*
X15283Y-14873D01*
X14990Y-14579D01*
X14990Y-12549D01*
X15049Y-12549D01*
X15141Y-12511D01*
X15211Y-12441D01*
X15249Y-12350D01*
X15249Y-12251D01*
X15249Y-11651D01*
X15211Y-11559D01*
X15141Y-11489D01*
X15050Y-11451D01*
X14951Y-11451D01*
X14351Y-11451D01*
X14259Y-11489D01*
X14189Y-11559D01*
X14151Y-11650D01*
X14151Y-11675D01*
X14011Y-11535D01*
X13809Y-11451D01*
X13591Y-11451D01*
X13389Y-11535D01*
X13235Y-11689D01*
X13200Y-11773D01*
X13165Y-11689D01*
X13011Y-11535D01*
X12809Y-11451D01*
X12591Y-11451D01*
X12389Y-11535D01*
X12235Y-11689D01*
X12200Y-11773D01*
X12165Y-11689D01*
X12011Y-11535D01*
X11809Y-11451D01*
X11591Y-11451D01*
X11389Y-11535D01*
X11235Y-11689D01*
X11200Y-11773D01*
X11165Y-11689D01*
X11011Y-11535D01*
X10809Y-11451D01*
X10591Y-11451D01*
X10389Y-11535D01*
X10235Y-11689D01*
X10168Y-11850D01*
X10168Y-10168D01*
X29203Y-10168D01*
X29203Y-29203D01*
X29203Y-29203D01*
G37*
G54D17*
X29203Y-29203D02*
X28825Y-29203D01*
X28825Y-25505D01*
X28825Y-25296D01*
X28824Y-25293D01*
X28824Y-22725D01*
X28824Y-22626D01*
X28824Y-22076D01*
X28786Y-21984D01*
X28716Y-21914D01*
X28625Y-21876D01*
X28526Y-21876D01*
X27976Y-21876D01*
X27884Y-21914D01*
X27814Y-21984D01*
X27776Y-22075D01*
X27776Y-22174D01*
X27776Y-22177D01*
X27745Y-22103D01*
X27598Y-21955D01*
X27405Y-21875D01*
X27196Y-21875D01*
X27003Y-21955D01*
X26855Y-22102D01*
X26799Y-22235D01*
X26745Y-22103D01*
X26598Y-21955D01*
X26405Y-21875D01*
X26196Y-21875D01*
X26003Y-21955D01*
X25855Y-22102D01*
X25799Y-22235D01*
X25745Y-22103D01*
X25598Y-21955D01*
X25405Y-21875D01*
X25196Y-21875D01*
X25003Y-21955D01*
X24855Y-22102D01*
X24799Y-22235D01*
X24745Y-22103D01*
X24598Y-21955D01*
X24405Y-21875D01*
X24196Y-21875D01*
X24003Y-21955D01*
X23855Y-22102D01*
X23799Y-22235D01*
X23745Y-22103D01*
X23598Y-21955D01*
X23405Y-21875D01*
X23196Y-21875D01*
X23003Y-21955D01*
X22855Y-22102D01*
X22799Y-22235D01*
X22745Y-22103D01*
X22598Y-21955D01*
X22405Y-21875D01*
X22196Y-21875D01*
X22003Y-21955D01*
X21855Y-22102D01*
X21799Y-22235D01*
X21745Y-22103D01*
X21598Y-21955D01*
X21405Y-21875D01*
X21196Y-21875D01*
X21003Y-21955D01*
X20855Y-22102D01*
X20775Y-22295D01*
X20775Y-22504D01*
X20855Y-22697D01*
X21002Y-22845D01*
X21195Y-22925D01*
X21404Y-22925D01*
X21597Y-22845D01*
X21745Y-22698D01*
X21800Y-22564D01*
X21855Y-22697D01*
X22002Y-22845D01*
X22195Y-22925D01*
X22404Y-22925D01*
X22597Y-22845D01*
X22745Y-22698D01*
X22800Y-22564D01*
X22855Y-22697D01*
X23002Y-22845D01*
X23195Y-22925D01*
X23404Y-22925D01*
X23597Y-22845D01*
X23745Y-22698D01*
X23800Y-22564D01*
X23855Y-22697D01*
X24002Y-22845D01*
X24195Y-22925D01*
X24404Y-22925D01*
X24597Y-22845D01*
X24745Y-22698D01*
X24800Y-22564D01*
X24855Y-22697D01*
X25002Y-22845D01*
X25195Y-22925D01*
X25404Y-22925D01*
X25597Y-22845D01*
X25745Y-22698D01*
X25800Y-22564D01*
X25855Y-22697D01*
X26002Y-22845D01*
X26195Y-22925D01*
X26404Y-22925D01*
X26597Y-22845D01*
X26745Y-22698D01*
X26800Y-22564D01*
X26855Y-22697D01*
X27002Y-22845D01*
X27195Y-22925D01*
X27404Y-22925D01*
X27597Y-22845D01*
X27745Y-22698D01*
X27776Y-22623D01*
X27776Y-22724D01*
X27814Y-22816D01*
X27884Y-22886D01*
X27975Y-22924D01*
X28074Y-22924D01*
X28624Y-22924D01*
X28716Y-22886D01*
X28786Y-22816D01*
X28824Y-22725D01*
X28824Y-25293D01*
X28745Y-25103D01*
X28598Y-24955D01*
X28405Y-24875D01*
X28196Y-24875D01*
X28003Y-24955D01*
X27855Y-25102D01*
X27799Y-25235D01*
X27745Y-25103D01*
X27598Y-24955D01*
X27405Y-24875D01*
X27196Y-24875D01*
X27003Y-24955D01*
X26855Y-25102D01*
X26799Y-25235D01*
X26745Y-25103D01*
X26598Y-24955D01*
X26405Y-24875D01*
X26196Y-24875D01*
X26003Y-24955D01*
X25855Y-25102D01*
X25799Y-25235D01*
X25745Y-25103D01*
X25598Y-24955D01*
X25405Y-24875D01*
X25196Y-24875D01*
X25003Y-24955D01*
X24855Y-25102D01*
X24799Y-25235D01*
X24745Y-25103D01*
X24598Y-24955D01*
X24405Y-24875D01*
X24196Y-24875D01*
X24003Y-24955D01*
X23855Y-25102D01*
X23799Y-25235D01*
X23745Y-25103D01*
X23598Y-24955D01*
X23405Y-24875D01*
X23196Y-24875D01*
X23003Y-24955D01*
X22855Y-25102D01*
X22799Y-25235D01*
X22745Y-25103D01*
X22598Y-24955D01*
X22405Y-24875D01*
X22196Y-24875D01*
X22003Y-24955D01*
X21855Y-25102D01*
X21796Y-25242D01*
X21752Y-25133D01*
X21661Y-25110D01*
X21590Y-25181D01*
X21590Y-25039D01*
X21567Y-24948D01*
X21374Y-24881D01*
X21170Y-24892D01*
X21033Y-24948D01*
X21010Y-25039D01*
X21300Y-25329D01*
X21590Y-25039D01*
X21590Y-25181D01*
X21371Y-25400D01*
X21661Y-25690D01*
X21752Y-25667D01*
X21793Y-25548D01*
X21855Y-25697D01*
X22002Y-25845D01*
X22195Y-25925D01*
X22404Y-25925D01*
X22597Y-25845D01*
X22745Y-25698D01*
X22800Y-25564D01*
X22855Y-25697D01*
X23002Y-25845D01*
X23195Y-25925D01*
X23404Y-25925D01*
X23597Y-25845D01*
X23745Y-25698D01*
X23800Y-25564D01*
X23855Y-25697D01*
X24002Y-25845D01*
X24195Y-25925D01*
X24404Y-25925D01*
X24597Y-25845D01*
X24745Y-25698D01*
X24800Y-25564D01*
X24855Y-25697D01*
X25002Y-25845D01*
X25195Y-25925D01*
X25404Y-25925D01*
X25597Y-25845D01*
X25745Y-25698D01*
X25800Y-25564D01*
X25855Y-25697D01*
X26002Y-25845D01*
X26195Y-25925D01*
X26404Y-25925D01*
X26597Y-25845D01*
X26745Y-25698D01*
X26800Y-25564D01*
X26855Y-25697D01*
X27002Y-25845D01*
X27195Y-25925D01*
X27404Y-25925D01*
X27597Y-25845D01*
X27745Y-25698D01*
X27800Y-25564D01*
X27855Y-25697D01*
X28002Y-25845D01*
X28195Y-25925D01*
X28404Y-25925D01*
X28597Y-25845D01*
X28745Y-25698D01*
X28825Y-25505D01*
X28825Y-29203D01*
X28824Y-29203D01*
X28824Y-28825D01*
X28824Y-28726D01*
X28824Y-28176D01*
X28786Y-28084D01*
X28716Y-28014D01*
X28625Y-27976D01*
X28526Y-27976D01*
X27976Y-27976D01*
X27884Y-28014D01*
X27814Y-28084D01*
X27776Y-28175D01*
X27776Y-28274D01*
X27776Y-28277D01*
X27745Y-28203D01*
X27598Y-28055D01*
X27405Y-27975D01*
X27196Y-27975D01*
X27003Y-28055D01*
X26855Y-28202D01*
X26799Y-28335D01*
X26745Y-28203D01*
X26598Y-28055D01*
X26405Y-27975D01*
X26196Y-27975D01*
X26003Y-28055D01*
X25855Y-28202D01*
X25799Y-28335D01*
X25745Y-28203D01*
X25598Y-28055D01*
X25405Y-27975D01*
X25196Y-27975D01*
X25003Y-28055D01*
X24855Y-28202D01*
X24796Y-28342D01*
X24752Y-28233D01*
X24661Y-28210D01*
X24590Y-28281D01*
X24590Y-28139D01*
X24567Y-28048D01*
X24374Y-27981D01*
X24170Y-27992D01*
X24033Y-28048D01*
X24010Y-28139D01*
X24300Y-28429D01*
X24590Y-28139D01*
X24590Y-28281D01*
X24371Y-28500D01*
X24661Y-28790D01*
X24752Y-28767D01*
X24793Y-28648D01*
X24855Y-28797D01*
X25002Y-28945D01*
X25195Y-29025D01*
X25404Y-29025D01*
X25597Y-28945D01*
X25745Y-28798D01*
X25800Y-28664D01*
X25855Y-28797D01*
X26002Y-28945D01*
X26195Y-29025D01*
X26404Y-29025D01*
X26597Y-28945D01*
X26745Y-28798D01*
X26800Y-28664D01*
X26855Y-28797D01*
X27002Y-28945D01*
X27195Y-29025D01*
X27404Y-29025D01*
X27597Y-28945D01*
X27745Y-28798D01*
X27776Y-28723D01*
X27776Y-28824D01*
X27814Y-28916D01*
X27884Y-28986D01*
X27975Y-29024D01*
X28074Y-29024D01*
X28624Y-29024D01*
X28716Y-28986D01*
X28786Y-28916D01*
X28824Y-28825D01*
X28824Y-29203D01*
X24590Y-29203D01*
X24590Y-28861D01*
X24300Y-28571D01*
X24229Y-28642D01*
X24229Y-28500D01*
X23939Y-28210D01*
X23848Y-28233D01*
X23781Y-28426D01*
X23792Y-28630D01*
X23848Y-28767D01*
X23939Y-28790D01*
X24229Y-28500D01*
X24229Y-28642D01*
X24010Y-28861D01*
X24033Y-28952D01*
X24226Y-29019D01*
X24430Y-29008D01*
X24567Y-28952D01*
X24590Y-28861D01*
X24590Y-29203D01*
X22149Y-29203D01*
X22149Y-27609D01*
X22149Y-27391D01*
X22065Y-27189D01*
X21911Y-27035D01*
X21709Y-26951D01*
X21590Y-26951D01*
X21590Y-25761D01*
X21300Y-25471D01*
X21229Y-25542D01*
X21229Y-25400D01*
X20939Y-25110D01*
X20848Y-25133D01*
X20781Y-25326D01*
X20792Y-25530D01*
X20848Y-25667D01*
X20939Y-25690D01*
X21229Y-25400D01*
X21229Y-25542D01*
X21010Y-25761D01*
X21033Y-25852D01*
X21226Y-25919D01*
X21430Y-25908D01*
X21567Y-25852D01*
X21590Y-25761D01*
X21590Y-26951D01*
X21491Y-26951D01*
X21289Y-27035D01*
X21135Y-27189D01*
X21100Y-27273D01*
X21065Y-27189D01*
X20911Y-27035D01*
X20709Y-26951D01*
X20491Y-26951D01*
X20289Y-27035D01*
X20135Y-27189D01*
X20100Y-27273D01*
X20065Y-27189D01*
X19911Y-27035D01*
X19709Y-26951D01*
X19491Y-26951D01*
X19289Y-27035D01*
X19135Y-27189D01*
X19100Y-27273D01*
X19065Y-27189D01*
X18911Y-27035D01*
X18709Y-26951D01*
X18491Y-26951D01*
X18425Y-26978D01*
X18425Y-25505D01*
X18425Y-25296D01*
X18424Y-25293D01*
X18424Y-22725D01*
X18424Y-22626D01*
X18424Y-22076D01*
X18386Y-21984D01*
X18316Y-21914D01*
X18225Y-21876D01*
X18126Y-21876D01*
X17576Y-21876D01*
X17484Y-21914D01*
X17414Y-21984D01*
X17376Y-22075D01*
X17376Y-22174D01*
X17376Y-22177D01*
X17345Y-22103D01*
X17198Y-21955D01*
X17005Y-21875D01*
X16796Y-21875D01*
X16603Y-21955D01*
X16455Y-22102D01*
X16399Y-22235D01*
X16345Y-22103D01*
X16198Y-21955D01*
X16005Y-21875D01*
X15796Y-21875D01*
X15603Y-21955D01*
X15455Y-22102D01*
X15399Y-22235D01*
X15345Y-22103D01*
X15198Y-21955D01*
X15005Y-21875D01*
X14796Y-21875D01*
X14603Y-21955D01*
X14455Y-22102D01*
X14399Y-22235D01*
X14399Y-19919D01*
X14399Y-19681D01*
X14308Y-19461D01*
X14139Y-19292D01*
X13919Y-19201D01*
X13681Y-19201D01*
X13461Y-19292D01*
X13292Y-19461D01*
X13201Y-19681D01*
X13201Y-19919D01*
X13292Y-20139D01*
X13461Y-20308D01*
X13681Y-20399D01*
X13919Y-20399D01*
X14139Y-20308D01*
X14308Y-20139D01*
X14399Y-19919D01*
X14399Y-22235D01*
X14345Y-22103D01*
X14198Y-21955D01*
X14005Y-21875D01*
X13796Y-21875D01*
X13603Y-21955D01*
X13455Y-22102D01*
X13399Y-22235D01*
X13345Y-22103D01*
X13198Y-21955D01*
X13005Y-21875D01*
X12796Y-21875D01*
X12603Y-21955D01*
X12455Y-22102D01*
X12399Y-22235D01*
X12399Y-19919D01*
X12399Y-19681D01*
X12308Y-19461D01*
X12139Y-19292D01*
X11919Y-19201D01*
X11681Y-19201D01*
X11461Y-19292D01*
X11292Y-19461D01*
X11201Y-19681D01*
X11201Y-19919D01*
X11292Y-20139D01*
X11461Y-20308D01*
X11681Y-20399D01*
X11919Y-20399D01*
X12139Y-20308D01*
X12308Y-20139D01*
X12399Y-19919D01*
X12399Y-22235D01*
X12345Y-22103D01*
X12198Y-21955D01*
X12005Y-21875D01*
X11796Y-21875D01*
X11603Y-21955D01*
X11455Y-22102D01*
X11399Y-22235D01*
X11345Y-22103D01*
X11198Y-21955D01*
X11005Y-21875D01*
X10796Y-21875D01*
X10603Y-21955D01*
X10455Y-22102D01*
X10375Y-22295D01*
X10375Y-22504D01*
X10455Y-22697D01*
X10602Y-22845D01*
X10795Y-22925D01*
X11004Y-22925D01*
X11197Y-22845D01*
X11345Y-22698D01*
X11400Y-22564D01*
X11455Y-22697D01*
X11602Y-22845D01*
X11795Y-22925D01*
X12004Y-22925D01*
X12197Y-22845D01*
X12345Y-22698D01*
X12400Y-22564D01*
X12455Y-22697D01*
X12602Y-22845D01*
X12795Y-22925D01*
X13004Y-22925D01*
X13197Y-22845D01*
X13345Y-22698D01*
X13400Y-22564D01*
X13455Y-22697D01*
X13602Y-22845D01*
X13795Y-22925D01*
X14004Y-22925D01*
X14197Y-22845D01*
X14345Y-22698D01*
X14400Y-22564D01*
X14455Y-22697D01*
X14602Y-22845D01*
X14795Y-22925D01*
X15004Y-22925D01*
X15197Y-22845D01*
X15345Y-22698D01*
X15400Y-22564D01*
X15455Y-22697D01*
X15602Y-22845D01*
X15795Y-22925D01*
X16004Y-22925D01*
X16197Y-22845D01*
X16345Y-22698D01*
X16400Y-22564D01*
X16455Y-22697D01*
X16602Y-22845D01*
X16795Y-22925D01*
X17004Y-22925D01*
X17197Y-22845D01*
X17345Y-22698D01*
X17376Y-22623D01*
X17376Y-22724D01*
X17414Y-22816D01*
X17484Y-22886D01*
X17575Y-22924D01*
X17674Y-22924D01*
X18224Y-22924D01*
X18316Y-22886D01*
X18386Y-22816D01*
X18424Y-22725D01*
X18424Y-25293D01*
X18345Y-25103D01*
X18198Y-24955D01*
X18005Y-24875D01*
X17796Y-24875D01*
X17603Y-24955D01*
X17455Y-25102D01*
X17399Y-25235D01*
X17345Y-25103D01*
X17198Y-24955D01*
X17005Y-24875D01*
X16796Y-24875D01*
X16603Y-24955D01*
X16455Y-25102D01*
X16399Y-25235D01*
X16345Y-25103D01*
X16198Y-24955D01*
X16005Y-24875D01*
X15796Y-24875D01*
X15603Y-24955D01*
X15455Y-25102D01*
X15399Y-25235D01*
X15345Y-25103D01*
X15198Y-24955D01*
X15005Y-24875D01*
X14796Y-24875D01*
X14603Y-24955D01*
X14455Y-25102D01*
X14399Y-25235D01*
X14345Y-25103D01*
X14198Y-24955D01*
X14005Y-24875D01*
X13796Y-24875D01*
X13603Y-24955D01*
X13455Y-25102D01*
X13399Y-25235D01*
X13345Y-25103D01*
X13198Y-24955D01*
X13005Y-24875D01*
X12796Y-24875D01*
X12603Y-24955D01*
X12455Y-25102D01*
X12399Y-25235D01*
X12345Y-25103D01*
X12198Y-24955D01*
X12005Y-24875D01*
X11796Y-24875D01*
X11603Y-24955D01*
X11455Y-25102D01*
X11396Y-25242D01*
X11352Y-25133D01*
X11261Y-25110D01*
X11190Y-25181D01*
X11190Y-25039D01*
X11167Y-24948D01*
X10974Y-24881D01*
X10770Y-24892D01*
X10633Y-24948D01*
X10610Y-25039D01*
X10900Y-25329D01*
X11190Y-25039D01*
X11190Y-25181D01*
X10971Y-25400D01*
X11261Y-25690D01*
X11352Y-25667D01*
X11393Y-25548D01*
X11455Y-25697D01*
X11602Y-25845D01*
X11795Y-25925D01*
X12004Y-25925D01*
X12197Y-25845D01*
X12345Y-25698D01*
X12400Y-25564D01*
X12455Y-25697D01*
X12602Y-25845D01*
X12795Y-25925D01*
X13004Y-25925D01*
X13197Y-25845D01*
X13345Y-25698D01*
X13400Y-25564D01*
X13455Y-25697D01*
X13602Y-25845D01*
X13795Y-25925D01*
X14004Y-25925D01*
X14197Y-25845D01*
X14345Y-25698D01*
X14400Y-25564D01*
X14455Y-25697D01*
X14602Y-25845D01*
X14795Y-25925D01*
X15004Y-25925D01*
X15197Y-25845D01*
X15345Y-25698D01*
X15400Y-25564D01*
X15455Y-25697D01*
X15602Y-25845D01*
X15795Y-25925D01*
X16004Y-25925D01*
X16197Y-25845D01*
X16345Y-25698D01*
X16400Y-25564D01*
X16455Y-25697D01*
X16602Y-25845D01*
X16795Y-25925D01*
X17004Y-25925D01*
X17197Y-25845D01*
X17345Y-25698D01*
X17400Y-25564D01*
X17455Y-25697D01*
X17602Y-25845D01*
X17795Y-25925D01*
X18004Y-25925D01*
X18197Y-25845D01*
X18345Y-25698D01*
X18425Y-25505D01*
X18425Y-26978D01*
X18289Y-27035D01*
X18135Y-27189D01*
X18100Y-27273D01*
X18065Y-27189D01*
X17911Y-27035D01*
X17709Y-26951D01*
X17491Y-26951D01*
X17289Y-27035D01*
X17135Y-27189D01*
X17051Y-27391D01*
X17051Y-27609D01*
X17135Y-27811D01*
X17274Y-27950D01*
X17251Y-27951D01*
X17159Y-27989D01*
X17089Y-28059D01*
X17051Y-28150D01*
X17051Y-28249D01*
X17050Y-28388D01*
X17112Y-28450D01*
X17500Y-28450D01*
X17550Y-28450D01*
X17650Y-28450D01*
X17650Y-28550D01*
X17650Y-28600D01*
X17650Y-28988D01*
X17712Y-29050D01*
X17949Y-29049D01*
X18041Y-29011D01*
X18111Y-28941D01*
X18149Y-28850D01*
X18149Y-28787D01*
X18222Y-28808D01*
X18529Y-28500D01*
X18222Y-28192D01*
X18149Y-28212D01*
X18149Y-28150D01*
X18111Y-28059D01*
X18041Y-27989D01*
X17949Y-27951D01*
X17925Y-27950D01*
X18065Y-27811D01*
X18100Y-27726D01*
X18135Y-27811D01*
X18289Y-27965D01*
X18380Y-28002D01*
X18319Y-28028D01*
X18292Y-28122D01*
X18600Y-28429D01*
X18908Y-28122D01*
X18881Y-28028D01*
X18815Y-28004D01*
X18911Y-27965D01*
X19065Y-27811D01*
X19100Y-27726D01*
X19135Y-27811D01*
X19289Y-27965D01*
X19380Y-28002D01*
X19319Y-28028D01*
X19292Y-28122D01*
X19600Y-28429D01*
X19908Y-28122D01*
X19881Y-28028D01*
X19815Y-28004D01*
X19911Y-27965D01*
X20065Y-27811D01*
X20100Y-27726D01*
X20135Y-27811D01*
X20289Y-27965D01*
X20380Y-28002D01*
X20319Y-28028D01*
X20292Y-28122D01*
X20600Y-28429D01*
X20908Y-28122D01*
X20881Y-28028D01*
X20815Y-28004D01*
X20911Y-27965D01*
X21065Y-27811D01*
X21100Y-27726D01*
X21135Y-27811D01*
X21289Y-27965D01*
X21380Y-28002D01*
X21319Y-28028D01*
X21292Y-28122D01*
X21600Y-28429D01*
X21908Y-28122D01*
X21881Y-28028D01*
X21815Y-28004D01*
X21911Y-27965D01*
X22065Y-27811D01*
X22149Y-27609D01*
X22149Y-29203D01*
X22143Y-29203D01*
X22143Y-28579D01*
X22132Y-28366D01*
X22072Y-28219D01*
X21978Y-28192D01*
X21671Y-28500D01*
X21978Y-28808D01*
X22072Y-28781D01*
X22143Y-28579D01*
X22143Y-29203D01*
X21908Y-29203D01*
X21908Y-28878D01*
X21600Y-28571D01*
X21529Y-28641D01*
X21529Y-28500D01*
X21222Y-28192D01*
X21128Y-28219D01*
X21102Y-28292D01*
X21072Y-28219D01*
X20978Y-28192D01*
X20671Y-28500D01*
X20978Y-28808D01*
X21072Y-28781D01*
X21097Y-28707D01*
X21128Y-28781D01*
X21222Y-28808D01*
X21529Y-28500D01*
X21529Y-28641D01*
X21292Y-28878D01*
X21319Y-28972D01*
X21521Y-29043D01*
X21734Y-29032D01*
X21881Y-28972D01*
X21908Y-28878D01*
X21908Y-29203D01*
X20908Y-29203D01*
X20908Y-28878D01*
X20600Y-28571D01*
X20529Y-28641D01*
X20529Y-28500D01*
X20222Y-28192D01*
X20128Y-28219D01*
X20102Y-28292D01*
X20072Y-28219D01*
X19978Y-28192D01*
X19671Y-28500D01*
X19978Y-28808D01*
X20072Y-28781D01*
X20097Y-28707D01*
X20128Y-28781D01*
X20222Y-28808D01*
X20529Y-28500D01*
X20529Y-28641D01*
X20292Y-28878D01*
X20319Y-28972D01*
X20521Y-29043D01*
X20734Y-29032D01*
X20881Y-28972D01*
X20908Y-28878D01*
X20908Y-29203D01*
X19908Y-29203D01*
X19908Y-28878D01*
X19600Y-28571D01*
X19529Y-28641D01*
X19529Y-28500D01*
X19222Y-28192D01*
X19128Y-28219D01*
X19102Y-28292D01*
X19072Y-28219D01*
X18978Y-28192D01*
X18671Y-28500D01*
X18978Y-28808D01*
X19072Y-28781D01*
X19097Y-28707D01*
X19128Y-28781D01*
X19222Y-28808D01*
X19529Y-28500D01*
X19529Y-28641D01*
X19292Y-28878D01*
X19319Y-28972D01*
X19521Y-29043D01*
X19734Y-29032D01*
X19881Y-28972D01*
X19908Y-28878D01*
X19908Y-29203D01*
X18908Y-29203D01*
X18908Y-28878D01*
X18600Y-28571D01*
X18292Y-28878D01*
X18319Y-28972D01*
X18521Y-29043D01*
X18734Y-29032D01*
X18881Y-28972D01*
X18908Y-28878D01*
X18908Y-29203D01*
X17550Y-29203D01*
X17550Y-28988D01*
X17550Y-28550D01*
X17112Y-28550D01*
X17050Y-28612D01*
X17051Y-28751D01*
X17051Y-28850D01*
X17089Y-28941D01*
X17159Y-29011D01*
X17251Y-29049D01*
X17488Y-29050D01*
X17550Y-28988D01*
X17550Y-29203D01*
X15424Y-29203D01*
X15424Y-28825D01*
X15424Y-28726D01*
X15424Y-28176D01*
X15386Y-28084D01*
X15316Y-28014D01*
X15225Y-27976D01*
X15126Y-27976D01*
X14576Y-27976D01*
X14484Y-28014D01*
X14414Y-28084D01*
X14376Y-28175D01*
X14376Y-28274D01*
X14376Y-28277D01*
X14345Y-28203D01*
X14198Y-28055D01*
X14005Y-27975D01*
X13796Y-27975D01*
X13603Y-28055D01*
X13455Y-28202D01*
X13399Y-28335D01*
X13345Y-28203D01*
X13198Y-28055D01*
X13005Y-27975D01*
X12796Y-27975D01*
X12603Y-28055D01*
X12455Y-28202D01*
X12399Y-28335D01*
X12345Y-28203D01*
X12198Y-28055D01*
X12005Y-27975D01*
X11796Y-27975D01*
X11603Y-28055D01*
X11455Y-28202D01*
X11396Y-28342D01*
X11352Y-28233D01*
X11261Y-28210D01*
X11190Y-28281D01*
X11190Y-28139D01*
X11190Y-25761D01*
X10900Y-25471D01*
X10829Y-25542D01*
X10829Y-25400D01*
X10539Y-25110D01*
X10448Y-25133D01*
X10381Y-25326D01*
X10392Y-25530D01*
X10448Y-25667D01*
X10539Y-25690D01*
X10829Y-25400D01*
X10829Y-25542D01*
X10610Y-25761D01*
X10633Y-25852D01*
X10826Y-25919D01*
X11030Y-25908D01*
X11167Y-25852D01*
X11190Y-25761D01*
X11190Y-28139D01*
X11167Y-28048D01*
X10974Y-27981D01*
X10770Y-27992D01*
X10633Y-28048D01*
X10610Y-28139D01*
X10900Y-28429D01*
X11190Y-28139D01*
X11190Y-28281D01*
X10971Y-28500D01*
X11261Y-28790D01*
X11352Y-28767D01*
X11393Y-28648D01*
X11455Y-28797D01*
X11602Y-28945D01*
X11795Y-29025D01*
X12004Y-29025D01*
X12197Y-28945D01*
X12345Y-28798D01*
X12400Y-28664D01*
X12455Y-28797D01*
X12602Y-28945D01*
X12795Y-29025D01*
X13004Y-29025D01*
X13197Y-28945D01*
X13345Y-28798D01*
X13400Y-28664D01*
X13455Y-28797D01*
X13602Y-28945D01*
X13795Y-29025D01*
X14004Y-29025D01*
X14197Y-28945D01*
X14345Y-28798D01*
X14376Y-28723D01*
X14376Y-28824D01*
X14414Y-28916D01*
X14484Y-28986D01*
X14575Y-29024D01*
X14674Y-29024D01*
X15224Y-29024D01*
X15316Y-28986D01*
X15386Y-28916D01*
X15424Y-28825D01*
X15424Y-29203D01*
X11190Y-29203D01*
X11190Y-28861D01*
X10900Y-28571D01*
X10829Y-28642D01*
X10829Y-28500D01*
X10539Y-28210D01*
X10448Y-28233D01*
X10381Y-28426D01*
X10392Y-28630D01*
X10448Y-28767D01*
X10539Y-28790D01*
X10829Y-28500D01*
X10829Y-28642D01*
X10610Y-28861D01*
X10633Y-28952D01*
X10826Y-29019D01*
X11030Y-29008D01*
X11167Y-28952D01*
X11190Y-28861D01*
X11190Y-29203D01*
X10168Y-29203D01*
X10168Y-12149D01*
X10235Y-12311D01*
X10389Y-12465D01*
X10410Y-12473D01*
X10410Y-17900D01*
X10432Y-18011D01*
X10495Y-18105D01*
X11194Y-18804D01*
X11195Y-18805D01*
X11288Y-18867D01*
X11289Y-18868D01*
X11399Y-18889D01*
X11400Y-18890D01*
X18080Y-18890D01*
X18977Y-19787D01*
X18975Y-19795D01*
X18975Y-20004D01*
X19055Y-20197D01*
X19202Y-20345D01*
X19395Y-20425D01*
X19604Y-20425D01*
X19797Y-20345D01*
X19945Y-20198D01*
X20000Y-20064D01*
X20055Y-20197D01*
X20202Y-20345D01*
X20395Y-20425D01*
X20604Y-20425D01*
X20797Y-20345D01*
X20945Y-20198D01*
X21000Y-20064D01*
X21055Y-20197D01*
X21202Y-20345D01*
X21395Y-20425D01*
X21604Y-20425D01*
X21797Y-20345D01*
X21945Y-20198D01*
X22000Y-20064D01*
X22055Y-20197D01*
X22202Y-20345D01*
X22395Y-20425D01*
X22604Y-20425D01*
X22797Y-20345D01*
X22945Y-20198D01*
X23000Y-20064D01*
X23055Y-20197D01*
X23202Y-20345D01*
X23395Y-20425D01*
X23604Y-20425D01*
X23724Y-20374D01*
X23732Y-20411D01*
X23795Y-20505D01*
X24194Y-20905D01*
X24195Y-20905D01*
X24288Y-20968D01*
X24289Y-20968D01*
X24306Y-20971D01*
X24400Y-20990D01*
X25700Y-20990D01*
X25811Y-20968D01*
X25905Y-20905D01*
X26387Y-20422D01*
X26395Y-20425D01*
X26604Y-20425D01*
X26797Y-20345D01*
X26945Y-20198D01*
X27000Y-20064D01*
X27055Y-20197D01*
X27202Y-20345D01*
X27395Y-20425D01*
X27604Y-20425D01*
X27797Y-20345D01*
X27945Y-20198D01*
X28000Y-20064D01*
X28055Y-20197D01*
X28202Y-20345D01*
X28395Y-20425D01*
X28604Y-20425D01*
X28797Y-20345D01*
X28945Y-20198D01*
X29025Y-20005D01*
X29025Y-19796D01*
X28945Y-19603D01*
X28798Y-19455D01*
X28605Y-19375D01*
X28396Y-19375D01*
X28285Y-19420D01*
X28290Y-19400D01*
X28290Y-17424D01*
X28824Y-17424D01*
X28916Y-17386D01*
X28986Y-17316D01*
X29024Y-17225D01*
X29024Y-17126D01*
X29024Y-16576D01*
X28986Y-16484D01*
X28916Y-16414D01*
X28825Y-16376D01*
X28726Y-16376D01*
X28290Y-16376D01*
X28290Y-15620D01*
X28387Y-15522D01*
X28395Y-15525D01*
X28604Y-15525D01*
X28797Y-15445D01*
X28945Y-15298D01*
X29025Y-15105D01*
X29025Y-14896D01*
X28945Y-14703D01*
X28798Y-14555D01*
X28605Y-14475D01*
X28549Y-14475D01*
X28549Y-12609D01*
X28549Y-12391D01*
X28465Y-12189D01*
X28325Y-12049D01*
X28349Y-12049D01*
X28441Y-12011D01*
X28511Y-11941D01*
X28549Y-11850D01*
X28549Y-11751D01*
X28549Y-11151D01*
X28511Y-11059D01*
X28441Y-10989D01*
X28350Y-10951D01*
X28251Y-10951D01*
X27651Y-10951D01*
X27559Y-10989D01*
X27489Y-11059D01*
X27451Y-11150D01*
X27451Y-11175D01*
X27311Y-11035D01*
X27109Y-10951D01*
X26891Y-10951D01*
X26689Y-11035D01*
X26535Y-11189D01*
X26500Y-11273D01*
X26465Y-11189D01*
X26311Y-11035D01*
X26109Y-10951D01*
X25891Y-10951D01*
X25689Y-11035D01*
X25535Y-11189D01*
X25500Y-11273D01*
X25465Y-11189D01*
X25311Y-11035D01*
X25109Y-10951D01*
X24891Y-10951D01*
X24689Y-11035D01*
X24535Y-11189D01*
X24500Y-11273D01*
X24465Y-11189D01*
X24311Y-11035D01*
X24109Y-10951D01*
X23891Y-10951D01*
X23689Y-11035D01*
X23535Y-11189D01*
X23500Y-11273D01*
X23465Y-11189D01*
X23311Y-11035D01*
X23109Y-10951D01*
X22891Y-10951D01*
X22689Y-11035D01*
X22535Y-11189D01*
X22500Y-11273D01*
X22465Y-11189D01*
X22311Y-11035D01*
X22109Y-10951D01*
X21891Y-10951D01*
X21689Y-11035D01*
X21535Y-11189D01*
X21500Y-11273D01*
X21465Y-11189D01*
X21311Y-11035D01*
X21109Y-10951D01*
X20891Y-10951D01*
X20689Y-11035D01*
X20535Y-11189D01*
X20500Y-11273D01*
X20465Y-11189D01*
X20311Y-11035D01*
X20109Y-10951D01*
X19891Y-10951D01*
X19689Y-11035D01*
X19535Y-11189D01*
X19500Y-11273D01*
X19465Y-11189D01*
X19311Y-11035D01*
X19109Y-10951D01*
X18891Y-10951D01*
X18689Y-11035D01*
X18535Y-11189D01*
X18500Y-11273D01*
X18465Y-11189D01*
X18311Y-11035D01*
X18109Y-10951D01*
X17891Y-10951D01*
X17689Y-11035D01*
X17535Y-11189D01*
X17500Y-11273D01*
X17465Y-11189D01*
X17311Y-11035D01*
X17109Y-10951D01*
X16891Y-10951D01*
X16689Y-11035D01*
X16535Y-11189D01*
X16500Y-11273D01*
X16465Y-11189D01*
X16311Y-11035D01*
X16109Y-10951D01*
X15891Y-10951D01*
X15689Y-11035D01*
X15535Y-11189D01*
X15451Y-11391D01*
X15451Y-11609D01*
X15535Y-11811D01*
X15689Y-11965D01*
X15773Y-12000D01*
X15689Y-12035D01*
X15535Y-12189D01*
X15451Y-12391D01*
X15451Y-12609D01*
X15535Y-12811D01*
X15689Y-12965D01*
X15891Y-13049D01*
X16109Y-13049D01*
X16311Y-12965D01*
X16465Y-12811D01*
X16500Y-12726D01*
X16535Y-12811D01*
X16689Y-12965D01*
X16710Y-12973D01*
X16710Y-13100D01*
X16732Y-13211D01*
X16795Y-13305D01*
X17595Y-14105D01*
X17689Y-14168D01*
X17800Y-14190D01*
X24279Y-14190D01*
X24564Y-14475D01*
X24396Y-14475D01*
X24203Y-14555D01*
X24055Y-14702D01*
X23975Y-14895D01*
X23975Y-15104D01*
X24055Y-15297D01*
X24202Y-15445D01*
X24395Y-15525D01*
X24604Y-15525D01*
X24797Y-15445D01*
X24945Y-15298D01*
X25000Y-15164D01*
X25055Y-15297D01*
X25202Y-15445D01*
X25395Y-15525D01*
X25604Y-15525D01*
X25797Y-15445D01*
X25945Y-15298D01*
X26025Y-15105D01*
X26025Y-14896D01*
X25945Y-14703D01*
X25798Y-14555D01*
X25605Y-14475D01*
X25396Y-14475D01*
X25388Y-14478D01*
X24605Y-13695D01*
X24511Y-13632D01*
X24400Y-13610D01*
X17920Y-13610D01*
X17290Y-12980D01*
X17290Y-12973D01*
X17311Y-12965D01*
X17465Y-12811D01*
X17500Y-12726D01*
X17535Y-12811D01*
X17689Y-12965D01*
X17891Y-13049D01*
X18109Y-13049D01*
X18311Y-12965D01*
X18465Y-12811D01*
X18500Y-12726D01*
X18535Y-12811D01*
X18689Y-12965D01*
X18891Y-13049D01*
X19109Y-13049D01*
X19311Y-12965D01*
X19465Y-12811D01*
X19500Y-12726D01*
X19535Y-12811D01*
X19689Y-12965D01*
X19891Y-13049D01*
X20109Y-13049D01*
X20311Y-12965D01*
X20465Y-12811D01*
X20500Y-12726D01*
X20535Y-12811D01*
X20689Y-12965D01*
X20891Y-13049D01*
X21109Y-13049D01*
X21311Y-12965D01*
X21465Y-12811D01*
X21500Y-12726D01*
X21535Y-12811D01*
X21689Y-12965D01*
X21891Y-13049D01*
X22109Y-13049D01*
X22311Y-12965D01*
X22465Y-12811D01*
X22500Y-12726D01*
X22535Y-12811D01*
X22689Y-12965D01*
X22891Y-13049D01*
X23109Y-13049D01*
X23311Y-12965D01*
X23465Y-12811D01*
X23500Y-12726D01*
X23535Y-12811D01*
X23689Y-12965D01*
X23891Y-13049D01*
X24109Y-13049D01*
X24311Y-12965D01*
X24465Y-12811D01*
X24500Y-12726D01*
X24535Y-12811D01*
X24689Y-12965D01*
X24891Y-13049D01*
X25109Y-13049D01*
X25311Y-12965D01*
X25465Y-12811D01*
X25500Y-12726D01*
X25535Y-12811D01*
X25689Y-12965D01*
X25891Y-13049D01*
X26109Y-13049D01*
X26311Y-12965D01*
X26465Y-12811D01*
X26500Y-12726D01*
X26535Y-12811D01*
X26689Y-12965D01*
X26891Y-13049D01*
X27109Y-13049D01*
X27311Y-12965D01*
X27465Y-12811D01*
X27500Y-12726D01*
X27535Y-12811D01*
X27689Y-12965D01*
X27891Y-13049D01*
X28109Y-13049D01*
X28311Y-12965D01*
X28465Y-12811D01*
X28549Y-12609D01*
X28549Y-14475D01*
X28396Y-14475D01*
X28203Y-14555D01*
X28055Y-14702D01*
X27975Y-14895D01*
X27975Y-15104D01*
X27978Y-15111D01*
X27795Y-15295D01*
X27732Y-15389D01*
X27710Y-15500D01*
X27710Y-16418D01*
X27605Y-16375D01*
X27396Y-16375D01*
X27203Y-16455D01*
X27055Y-16602D01*
X26999Y-16735D01*
X26945Y-16603D01*
X26798Y-16455D01*
X26605Y-16375D01*
X26396Y-16375D01*
X26203Y-16455D01*
X26055Y-16602D01*
X25999Y-16735D01*
X25945Y-16603D01*
X25798Y-16455D01*
X25605Y-16375D01*
X25396Y-16375D01*
X25203Y-16455D01*
X25055Y-16602D01*
X24999Y-16735D01*
X24945Y-16603D01*
X24798Y-16455D01*
X24605Y-16375D01*
X24396Y-16375D01*
X24290Y-16418D01*
X24290Y-16200D01*
X24268Y-16089D01*
X24205Y-15995D01*
X23605Y-15395D01*
X23511Y-15332D01*
X23400Y-15310D01*
X21932Y-15310D01*
X21945Y-15298D01*
X22025Y-15105D01*
X22025Y-14896D01*
X21945Y-14703D01*
X21798Y-14555D01*
X21605Y-14475D01*
X21396Y-14475D01*
X21203Y-14555D01*
X21055Y-14702D01*
X20999Y-14835D01*
X20945Y-14703D01*
X20798Y-14555D01*
X20605Y-14475D01*
X20396Y-14475D01*
X20203Y-14555D01*
X20055Y-14702D01*
X19975Y-14895D01*
X19975Y-15104D01*
X20055Y-15297D01*
X20202Y-15445D01*
X20358Y-15510D01*
X17640Y-15510D01*
X17797Y-15445D01*
X17945Y-15298D01*
X18025Y-15105D01*
X18025Y-14896D01*
X17945Y-14703D01*
X17798Y-14555D01*
X17605Y-14475D01*
X17396Y-14475D01*
X17203Y-14555D01*
X17055Y-14702D01*
X16975Y-14895D01*
X16975Y-15104D01*
X17055Y-15297D01*
X17202Y-15445D01*
X17358Y-15510D01*
X15940Y-15510D01*
X16097Y-15445D01*
X16245Y-15298D01*
X16325Y-15105D01*
X16325Y-14896D01*
X16245Y-14703D01*
X16098Y-14555D01*
X15905Y-14475D01*
X15696Y-14475D01*
X15503Y-14555D01*
X15355Y-14702D01*
X15283Y-14873D01*
X14990Y-14579D01*
X14990Y-12549D01*
X15049Y-12549D01*
X15141Y-12511D01*
X15211Y-12441D01*
X15249Y-12350D01*
X15249Y-12251D01*
X15249Y-11651D01*
X15211Y-11559D01*
X15141Y-11489D01*
X15050Y-11451D01*
X14951Y-11451D01*
X14351Y-11451D01*
X14259Y-11489D01*
X14189Y-11559D01*
X14151Y-11650D01*
X14151Y-11675D01*
X14011Y-11535D01*
X13809Y-11451D01*
X13591Y-11451D01*
X13389Y-11535D01*
X13235Y-11689D01*
X13200Y-11773D01*
X13165Y-11689D01*
X13011Y-11535D01*
X12809Y-11451D01*
X12591Y-11451D01*
X12389Y-11535D01*
X12235Y-11689D01*
X12200Y-11773D01*
X12165Y-11689D01*
X12011Y-11535D01*
X11809Y-11451D01*
X11591Y-11451D01*
X11389Y-11535D01*
X11235Y-11689D01*
X11200Y-11773D01*
X11165Y-11689D01*
X11011Y-11535D01*
X10809Y-11451D01*
X10591Y-11451D01*
X10389Y-11535D01*
X10235Y-11689D01*
X10168Y-11850D01*
X10168Y-10168D01*
X29203Y-10168D01*
X29203Y-29203D01*
M02*
