G04 (created by PCBNEW-RS274X (2011-05-25)-stable) date Ut 23. jún 2015, 15:15:57 CEST*
G01*
G70*
G90*
%MOIN*%
G04 Gerber Fmt 3.4, Leading zero omitted, Abs format*
%FSLAX34Y34*%
G04 APERTURE LIST*
%ADD10C,0.006000*%
%ADD11R,0.055000X0.055000*%
%ADD12C,0.055000*%
%ADD13R,0.060000X0.060000*%
%ADD14C,0.060000*%
%ADD15C,0.070000*%
%ADD16C,0.008000*%
%ADD17C,0.010000*%
G04 APERTURE END LIST*
G54D10*
G54D11*
X28300Y-28500D03*
G54D12*
X27300Y-28500D03*
X26300Y-28500D03*
X25300Y-28500D03*
X24300Y-28500D03*
G54D11*
X14900Y-28500D03*
G54D12*
X13900Y-28500D03*
X12900Y-28500D03*
X11900Y-28500D03*
X10900Y-28500D03*
X20500Y-15000D03*
X17500Y-15000D03*
X12800Y-15000D03*
X15800Y-15000D03*
X28500Y-15000D03*
X25500Y-15000D03*
X24500Y-15000D03*
X21500Y-15000D03*
G54D13*
X17600Y-28500D03*
G54D14*
X17600Y-27500D03*
X18600Y-28500D03*
X18600Y-27500D03*
X19600Y-28500D03*
X19600Y-27500D03*
X20600Y-28500D03*
X20600Y-27500D03*
X21600Y-28500D03*
X21600Y-27500D03*
G54D13*
X14700Y-12000D03*
G54D14*
X13700Y-12000D03*
X12700Y-12000D03*
X11700Y-12000D03*
X10700Y-12000D03*
G54D15*
X11800Y-19800D03*
X13800Y-19800D03*
G54D11*
X28500Y-16900D03*
G54D12*
X27500Y-16900D03*
X26500Y-16900D03*
X25500Y-16900D03*
X24500Y-16900D03*
X23500Y-16900D03*
X22500Y-16900D03*
X21500Y-16900D03*
X20500Y-16900D03*
X19500Y-16900D03*
X19500Y-19900D03*
X20500Y-19900D03*
X21500Y-19900D03*
X22500Y-19900D03*
X23500Y-19900D03*
X24500Y-19900D03*
X25500Y-19900D03*
X26500Y-19900D03*
X27500Y-19900D03*
X28500Y-19900D03*
G54D11*
X28300Y-22400D03*
G54D12*
X27300Y-22400D03*
X26300Y-22400D03*
X25300Y-22400D03*
X24300Y-22400D03*
X23300Y-22400D03*
X22300Y-22400D03*
X21300Y-22400D03*
X21300Y-25400D03*
X22300Y-25400D03*
X23300Y-25400D03*
X24300Y-25400D03*
X25300Y-25400D03*
X26300Y-25400D03*
X27300Y-25400D03*
X28300Y-25400D03*
G54D11*
X17900Y-22400D03*
G54D12*
X16900Y-22400D03*
X15900Y-22400D03*
X14900Y-22400D03*
X13900Y-22400D03*
X12900Y-22400D03*
X11900Y-22400D03*
X10900Y-22400D03*
X10900Y-25400D03*
X11900Y-25400D03*
X12900Y-25400D03*
X13900Y-25400D03*
X14900Y-25400D03*
X15900Y-25400D03*
X16900Y-25400D03*
X17900Y-25400D03*
X11800Y-17900D03*
X11800Y-16900D03*
X13800Y-17900D03*
X13800Y-16900D03*
G54D13*
X28000Y-11500D03*
G54D14*
X28000Y-12500D03*
X27000Y-11500D03*
X27000Y-12500D03*
X26000Y-11500D03*
X26000Y-12500D03*
X25000Y-11500D03*
X25000Y-12500D03*
X24000Y-11500D03*
X24000Y-12500D03*
X23000Y-11500D03*
X23000Y-12500D03*
X22000Y-11500D03*
X22000Y-12500D03*
X21000Y-11500D03*
X21000Y-12500D03*
X20000Y-11500D03*
X20000Y-12500D03*
X19000Y-11500D03*
X19000Y-12500D03*
X18000Y-11500D03*
X18000Y-12500D03*
X17000Y-11500D03*
X17000Y-12500D03*
X16000Y-11500D03*
X16000Y-12500D03*
G54D16*
X17500Y-15000D02*
X17500Y-14000D01*
X17500Y-14000D02*
X19000Y-12500D01*
X26500Y-19900D02*
X26500Y-21600D01*
X26500Y-21600D02*
X27300Y-22400D01*
X21500Y-15000D02*
X21500Y-13000D01*
X21500Y-13000D02*
X21000Y-12500D01*
X28500Y-16900D02*
X28400Y-16900D01*
X26000Y-16500D02*
X24500Y-15000D01*
X26000Y-17200D02*
X26000Y-16500D01*
X26300Y-17500D02*
X26000Y-17200D01*
X27800Y-17500D02*
X26300Y-17500D01*
X28400Y-16900D02*
X27800Y-17500D01*
X28300Y-28500D02*
X28300Y-25400D01*
X11900Y-28500D02*
X11900Y-28400D01*
X11900Y-28400D02*
X14900Y-25400D01*
X14900Y-28500D02*
X14900Y-28400D01*
X14900Y-28400D02*
X17900Y-25400D01*
X27500Y-19900D02*
X27500Y-21600D01*
X27500Y-21600D02*
X28300Y-22400D01*
X27300Y-25400D02*
X27300Y-28500D01*
X25000Y-11500D02*
X25500Y-12000D01*
X27500Y-15000D02*
X27500Y-16900D01*
X25500Y-13000D02*
X27500Y-15000D01*
X25500Y-12000D02*
X25500Y-13000D01*
X25300Y-25400D02*
X25300Y-28500D01*
X24500Y-19900D02*
X24500Y-21600D01*
X24500Y-21600D02*
X25300Y-22400D01*
X23500Y-19900D02*
X23400Y-19900D01*
X18500Y-21800D02*
X17900Y-22400D01*
X21500Y-21800D02*
X18500Y-21800D01*
X23400Y-19900D02*
X21500Y-21800D01*
X21500Y-19900D02*
X20400Y-21000D01*
X17300Y-21000D02*
X15900Y-22400D01*
X20400Y-21000D02*
X17300Y-21000D01*
X22500Y-19900D02*
X21000Y-21400D01*
X17900Y-21400D02*
X16900Y-22400D01*
X21000Y-21400D02*
X17900Y-21400D01*
X24500Y-16900D02*
X24500Y-17200D01*
X15700Y-17900D02*
X13800Y-19800D01*
X23800Y-17900D02*
X15700Y-17900D01*
X24500Y-17200D02*
X23800Y-17900D01*
X13800Y-19800D02*
X13800Y-17900D01*
X24100Y-18300D02*
X25500Y-16900D01*
X16400Y-18300D02*
X24100Y-18300D01*
X14000Y-20700D02*
X16400Y-18300D01*
X12100Y-20700D02*
X14000Y-20700D01*
X11800Y-20400D02*
X12100Y-20700D01*
X11800Y-19800D02*
X11800Y-20400D01*
X11800Y-19800D02*
X11800Y-17900D01*
X20500Y-19900D02*
X19800Y-20600D01*
X16700Y-20600D02*
X14900Y-22400D01*
X19800Y-20600D02*
X16700Y-20600D01*
X26300Y-28500D02*
X26300Y-25400D01*
X13900Y-28500D02*
X13900Y-28400D01*
X13900Y-28400D02*
X16900Y-25400D01*
X26500Y-16900D02*
X26500Y-14900D01*
X24500Y-12000D02*
X24000Y-11500D01*
X24500Y-12900D02*
X24500Y-12000D01*
X26500Y-14900D02*
X24500Y-12900D01*
X15800Y-15000D02*
X15800Y-14700D01*
X15800Y-14700D02*
X18000Y-12500D01*
X20000Y-12500D02*
X20500Y-12000D01*
X29100Y-19300D02*
X28500Y-19900D01*
X29100Y-10900D02*
X29100Y-19300D01*
X28900Y-10700D02*
X29100Y-10900D01*
X20800Y-10700D02*
X28900Y-10700D01*
X20500Y-11000D02*
X20800Y-10700D01*
X20500Y-12000D02*
X20500Y-11000D01*
X15900Y-25400D02*
X15900Y-25500D01*
X15900Y-25500D02*
X12900Y-28500D01*
X25500Y-19900D02*
X25500Y-21600D01*
X25500Y-21600D02*
X26300Y-22400D01*
G54D10*
G36*
X29203Y-29203D02*
X28825Y-29203D01*
X28825Y-25505D01*
X28825Y-25296D01*
X28745Y-25103D01*
X28598Y-24955D01*
X28405Y-24875D01*
X28196Y-24875D01*
X28003Y-24955D01*
X27855Y-25102D01*
X27799Y-25235D01*
X27745Y-25103D01*
X27598Y-24955D01*
X27405Y-24875D01*
X27196Y-24875D01*
X27003Y-24955D01*
X26855Y-25102D01*
X26799Y-25235D01*
X26745Y-25103D01*
X26598Y-24955D01*
X26405Y-24875D01*
X26196Y-24875D01*
X26003Y-24955D01*
X25855Y-25102D01*
X25799Y-25235D01*
X25745Y-25103D01*
X25598Y-24955D01*
X25405Y-24875D01*
X25196Y-24875D01*
X25003Y-24955D01*
X24855Y-25102D01*
X24799Y-25235D01*
X24745Y-25103D01*
X24598Y-24955D01*
X24405Y-24875D01*
X24196Y-24875D01*
X24003Y-24955D01*
X23855Y-25102D01*
X23799Y-25235D01*
X23745Y-25103D01*
X23598Y-24955D01*
X23405Y-24875D01*
X23196Y-24875D01*
X23003Y-24955D01*
X22855Y-25102D01*
X22799Y-25235D01*
X22745Y-25103D01*
X22598Y-24955D01*
X22405Y-24875D01*
X22196Y-24875D01*
X22003Y-24955D01*
X21855Y-25102D01*
X21799Y-25235D01*
X21745Y-25103D01*
X21598Y-24955D01*
X21590Y-24951D01*
X21590Y-22761D01*
X21300Y-22471D01*
X21229Y-22542D01*
X21010Y-22761D01*
X21033Y-22852D01*
X21226Y-22919D01*
X21430Y-22908D01*
X21567Y-22852D01*
X21590Y-22761D01*
X21590Y-24951D01*
X21405Y-24875D01*
X21196Y-24875D01*
X21003Y-24955D01*
X20855Y-25102D01*
X20775Y-25295D01*
X20775Y-25504D01*
X20855Y-25697D01*
X21002Y-25845D01*
X21195Y-25925D01*
X21404Y-25925D01*
X21597Y-25845D01*
X21745Y-25698D01*
X21800Y-25564D01*
X21855Y-25697D01*
X22002Y-25845D01*
X22195Y-25925D01*
X22404Y-25925D01*
X22597Y-25845D01*
X22745Y-25698D01*
X22800Y-25564D01*
X22855Y-25697D01*
X23002Y-25845D01*
X23195Y-25925D01*
X23404Y-25925D01*
X23597Y-25845D01*
X23745Y-25698D01*
X23800Y-25564D01*
X23855Y-25697D01*
X24002Y-25845D01*
X24195Y-25925D01*
X24404Y-25925D01*
X24597Y-25845D01*
X24745Y-25698D01*
X24800Y-25564D01*
X24855Y-25697D01*
X25002Y-25845D01*
X25010Y-25848D01*
X25010Y-28052D01*
X25003Y-28055D01*
X24855Y-28202D01*
X24799Y-28335D01*
X24745Y-28203D01*
X24598Y-28055D01*
X24405Y-27975D01*
X24196Y-27975D01*
X24003Y-28055D01*
X23855Y-28202D01*
X23775Y-28395D01*
X23775Y-28604D01*
X23855Y-28797D01*
X24002Y-28945D01*
X24195Y-29025D01*
X24404Y-29025D01*
X24597Y-28945D01*
X24745Y-28798D01*
X24800Y-28664D01*
X24855Y-28797D01*
X25002Y-28945D01*
X25195Y-29025D01*
X25404Y-29025D01*
X25597Y-28945D01*
X25745Y-28798D01*
X25800Y-28664D01*
X25855Y-28797D01*
X26002Y-28945D01*
X26195Y-29025D01*
X26404Y-29025D01*
X26597Y-28945D01*
X26745Y-28798D01*
X26800Y-28664D01*
X26855Y-28797D01*
X27002Y-28945D01*
X27195Y-29025D01*
X27404Y-29025D01*
X27597Y-28945D01*
X27745Y-28798D01*
X27776Y-28723D01*
X27776Y-28824D01*
X27814Y-28916D01*
X27884Y-28986D01*
X27975Y-29024D01*
X28074Y-29024D01*
X28624Y-29024D01*
X28716Y-28986D01*
X28786Y-28916D01*
X28824Y-28825D01*
X28824Y-28726D01*
X28824Y-28176D01*
X28786Y-28084D01*
X28716Y-28014D01*
X28625Y-27976D01*
X28590Y-27976D01*
X28590Y-25847D01*
X28597Y-25845D01*
X28745Y-25698D01*
X28825Y-25505D01*
X28825Y-29203D01*
X22149Y-29203D01*
X22149Y-28609D01*
X22149Y-28391D01*
X22143Y-28376D01*
X22143Y-27579D01*
X22132Y-27366D01*
X22072Y-27219D01*
X21978Y-27192D01*
X21908Y-27262D01*
X21908Y-27122D01*
X21881Y-27028D01*
X21679Y-26957D01*
X21466Y-26968D01*
X21319Y-27028D01*
X21292Y-27122D01*
X21600Y-27429D01*
X21908Y-27122D01*
X21908Y-27262D01*
X21671Y-27500D01*
X21978Y-27808D01*
X22072Y-27781D01*
X22143Y-27579D01*
X22143Y-28376D01*
X22065Y-28189D01*
X21911Y-28035D01*
X21819Y-27997D01*
X21881Y-27972D01*
X21908Y-27878D01*
X21600Y-27571D01*
X21529Y-27641D01*
X21529Y-27500D01*
X21222Y-27192D01*
X21128Y-27219D01*
X21102Y-27292D01*
X21072Y-27219D01*
X20978Y-27192D01*
X20908Y-27262D01*
X20908Y-27122D01*
X20881Y-27028D01*
X20679Y-26957D01*
X20466Y-26968D01*
X20319Y-27028D01*
X20292Y-27122D01*
X20600Y-27429D01*
X20908Y-27122D01*
X20908Y-27262D01*
X20671Y-27500D01*
X20978Y-27808D01*
X21072Y-27781D01*
X21097Y-27707D01*
X21128Y-27781D01*
X21222Y-27808D01*
X21529Y-27500D01*
X21529Y-27641D01*
X21292Y-27878D01*
X21319Y-27972D01*
X21384Y-27995D01*
X21289Y-28035D01*
X21135Y-28189D01*
X21100Y-28273D01*
X21065Y-28189D01*
X20911Y-28035D01*
X20819Y-27997D01*
X20881Y-27972D01*
X20908Y-27878D01*
X20600Y-27571D01*
X20529Y-27641D01*
X20529Y-27500D01*
X20222Y-27192D01*
X20128Y-27219D01*
X20102Y-27292D01*
X20072Y-27219D01*
X19978Y-27192D01*
X19908Y-27262D01*
X19908Y-27122D01*
X19881Y-27028D01*
X19679Y-26957D01*
X19466Y-26968D01*
X19319Y-27028D01*
X19292Y-27122D01*
X19600Y-27429D01*
X19908Y-27122D01*
X19908Y-27262D01*
X19671Y-27500D01*
X19978Y-27808D01*
X20072Y-27781D01*
X20097Y-27707D01*
X20128Y-27781D01*
X20222Y-27808D01*
X20529Y-27500D01*
X20529Y-27641D01*
X20292Y-27878D01*
X20319Y-27972D01*
X20384Y-27995D01*
X20289Y-28035D01*
X20135Y-28189D01*
X20100Y-28273D01*
X20065Y-28189D01*
X19911Y-28035D01*
X19819Y-27997D01*
X19881Y-27972D01*
X19908Y-27878D01*
X19600Y-27571D01*
X19529Y-27641D01*
X19529Y-27500D01*
X19222Y-27192D01*
X19128Y-27219D01*
X19102Y-27292D01*
X19072Y-27219D01*
X18978Y-27192D01*
X18908Y-27262D01*
X18908Y-27122D01*
X18881Y-27028D01*
X18679Y-26957D01*
X18466Y-26968D01*
X18425Y-26984D01*
X18425Y-25505D01*
X18425Y-25296D01*
X18345Y-25103D01*
X18198Y-24955D01*
X18005Y-24875D01*
X17796Y-24875D01*
X17603Y-24955D01*
X17455Y-25102D01*
X17399Y-25235D01*
X17345Y-25103D01*
X17198Y-24955D01*
X17005Y-24875D01*
X16796Y-24875D01*
X16603Y-24955D01*
X16455Y-25102D01*
X16399Y-25235D01*
X16345Y-25103D01*
X16198Y-24955D01*
X16005Y-24875D01*
X15796Y-24875D01*
X15603Y-24955D01*
X15455Y-25102D01*
X15399Y-25235D01*
X15345Y-25103D01*
X15198Y-24955D01*
X15005Y-24875D01*
X14796Y-24875D01*
X14603Y-24955D01*
X14455Y-25102D01*
X14399Y-25235D01*
X14345Y-25103D01*
X14198Y-24955D01*
X14005Y-24875D01*
X13796Y-24875D01*
X13603Y-24955D01*
X13455Y-25102D01*
X13399Y-25235D01*
X13345Y-25103D01*
X13198Y-24955D01*
X13005Y-24875D01*
X12796Y-24875D01*
X12603Y-24955D01*
X12455Y-25102D01*
X12399Y-25235D01*
X12345Y-25103D01*
X12198Y-24955D01*
X12005Y-24875D01*
X11796Y-24875D01*
X11603Y-24955D01*
X11455Y-25102D01*
X11399Y-25235D01*
X11345Y-25103D01*
X11198Y-24955D01*
X11190Y-24951D01*
X11190Y-22761D01*
X10900Y-22471D01*
X10829Y-22542D01*
X10829Y-22400D01*
X10539Y-22110D01*
X10448Y-22133D01*
X10381Y-22326D01*
X10392Y-22530D01*
X10448Y-22667D01*
X10539Y-22690D01*
X10829Y-22400D01*
X10829Y-22542D01*
X10610Y-22761D01*
X10633Y-22852D01*
X10826Y-22919D01*
X11030Y-22908D01*
X11167Y-22852D01*
X11190Y-22761D01*
X11190Y-24951D01*
X11005Y-24875D01*
X10796Y-24875D01*
X10603Y-24955D01*
X10455Y-25102D01*
X10375Y-25295D01*
X10375Y-25504D01*
X10455Y-25697D01*
X10602Y-25845D01*
X10795Y-25925D01*
X11004Y-25925D01*
X11197Y-25845D01*
X11345Y-25698D01*
X11400Y-25564D01*
X11455Y-25697D01*
X11602Y-25845D01*
X11795Y-25925D01*
X12004Y-25925D01*
X12197Y-25845D01*
X12345Y-25698D01*
X12400Y-25564D01*
X12455Y-25697D01*
X12602Y-25845D01*
X12795Y-25925D01*
X13004Y-25925D01*
X13197Y-25845D01*
X13345Y-25698D01*
X13400Y-25564D01*
X13455Y-25697D01*
X13602Y-25845D01*
X13795Y-25925D01*
X13964Y-25925D01*
X11914Y-27975D01*
X11796Y-27975D01*
X11603Y-28055D01*
X11455Y-28202D01*
X11399Y-28335D01*
X11345Y-28203D01*
X11198Y-28055D01*
X11005Y-27975D01*
X10796Y-27975D01*
X10603Y-28055D01*
X10455Y-28202D01*
X10375Y-28395D01*
X10375Y-28604D01*
X10455Y-28797D01*
X10602Y-28945D01*
X10795Y-29025D01*
X11004Y-29025D01*
X11197Y-28945D01*
X11345Y-28798D01*
X11400Y-28664D01*
X11455Y-28797D01*
X11602Y-28945D01*
X11795Y-29025D01*
X12004Y-29025D01*
X12197Y-28945D01*
X12345Y-28798D01*
X12400Y-28664D01*
X12455Y-28797D01*
X12602Y-28945D01*
X12795Y-29025D01*
X13004Y-29025D01*
X13197Y-28945D01*
X13345Y-28798D01*
X13400Y-28664D01*
X13455Y-28797D01*
X13602Y-28945D01*
X13795Y-29025D01*
X14004Y-29025D01*
X14197Y-28945D01*
X14345Y-28798D01*
X14376Y-28723D01*
X14376Y-28824D01*
X14414Y-28916D01*
X14484Y-28986D01*
X14575Y-29024D01*
X14674Y-29024D01*
X15224Y-29024D01*
X15316Y-28986D01*
X15386Y-28916D01*
X15424Y-28825D01*
X15424Y-28726D01*
X15424Y-28286D01*
X17788Y-25922D01*
X17795Y-25925D01*
X18004Y-25925D01*
X18197Y-25845D01*
X18345Y-25698D01*
X18425Y-25505D01*
X18425Y-26984D01*
X18319Y-27028D01*
X18292Y-27122D01*
X18600Y-27429D01*
X18908Y-27122D01*
X18908Y-27262D01*
X18671Y-27500D01*
X18978Y-27808D01*
X19072Y-27781D01*
X19097Y-27707D01*
X19128Y-27781D01*
X19222Y-27808D01*
X19529Y-27500D01*
X19529Y-27641D01*
X19292Y-27878D01*
X19319Y-27972D01*
X19384Y-27995D01*
X19289Y-28035D01*
X19135Y-28189D01*
X19100Y-28273D01*
X19065Y-28189D01*
X18911Y-28035D01*
X18819Y-27997D01*
X18881Y-27972D01*
X18908Y-27878D01*
X18600Y-27571D01*
X18529Y-27641D01*
X18529Y-27500D01*
X18222Y-27192D01*
X18128Y-27219D01*
X18102Y-27292D01*
X18072Y-27219D01*
X17978Y-27192D01*
X17908Y-27262D01*
X17908Y-27122D01*
X17881Y-27028D01*
X17679Y-26957D01*
X17466Y-26968D01*
X17319Y-27028D01*
X17292Y-27122D01*
X17600Y-27429D01*
X17908Y-27122D01*
X17908Y-27262D01*
X17671Y-27500D01*
X17978Y-27808D01*
X18072Y-27781D01*
X18097Y-27707D01*
X18128Y-27781D01*
X18222Y-27808D01*
X18529Y-27500D01*
X18529Y-27641D01*
X18292Y-27878D01*
X18319Y-27972D01*
X18384Y-27995D01*
X18289Y-28035D01*
X18149Y-28175D01*
X18149Y-28151D01*
X18111Y-28059D01*
X18041Y-27989D01*
X17950Y-27951D01*
X17887Y-27951D01*
X17908Y-27878D01*
X17600Y-27571D01*
X17529Y-27641D01*
X17529Y-27500D01*
X17222Y-27192D01*
X17128Y-27219D01*
X17057Y-27421D01*
X17068Y-27634D01*
X17128Y-27781D01*
X17222Y-27808D01*
X17529Y-27500D01*
X17529Y-27641D01*
X17292Y-27878D01*
X17312Y-27951D01*
X17251Y-27951D01*
X17159Y-27989D01*
X17089Y-28059D01*
X17051Y-28150D01*
X17051Y-28249D01*
X17051Y-28849D01*
X17089Y-28941D01*
X17159Y-29011D01*
X17250Y-29049D01*
X17349Y-29049D01*
X17949Y-29049D01*
X18041Y-29011D01*
X18111Y-28941D01*
X18149Y-28850D01*
X18149Y-28825D01*
X18289Y-28965D01*
X18491Y-29049D01*
X18709Y-29049D01*
X18911Y-28965D01*
X19065Y-28811D01*
X19100Y-28726D01*
X19135Y-28811D01*
X19289Y-28965D01*
X19491Y-29049D01*
X19709Y-29049D01*
X19911Y-28965D01*
X20065Y-28811D01*
X20100Y-28726D01*
X20135Y-28811D01*
X20289Y-28965D01*
X20491Y-29049D01*
X20709Y-29049D01*
X20911Y-28965D01*
X21065Y-28811D01*
X21100Y-28726D01*
X21135Y-28811D01*
X21289Y-28965D01*
X21491Y-29049D01*
X21709Y-29049D01*
X21911Y-28965D01*
X22065Y-28811D01*
X22149Y-28609D01*
X22149Y-29203D01*
X10168Y-29203D01*
X10168Y-12149D01*
X10235Y-12311D01*
X10389Y-12465D01*
X10591Y-12549D01*
X10809Y-12549D01*
X11011Y-12465D01*
X11165Y-12311D01*
X11200Y-12226D01*
X11235Y-12311D01*
X11389Y-12465D01*
X11591Y-12549D01*
X11809Y-12549D01*
X12011Y-12465D01*
X12165Y-12311D01*
X12200Y-12226D01*
X12235Y-12311D01*
X12389Y-12465D01*
X12591Y-12549D01*
X12809Y-12549D01*
X13011Y-12465D01*
X13165Y-12311D01*
X13200Y-12226D01*
X13235Y-12311D01*
X13389Y-12465D01*
X13591Y-12549D01*
X13809Y-12549D01*
X14011Y-12465D01*
X14151Y-12325D01*
X14151Y-12349D01*
X14189Y-12441D01*
X14259Y-12511D01*
X14350Y-12549D01*
X14449Y-12549D01*
X15049Y-12549D01*
X15141Y-12511D01*
X15211Y-12441D01*
X15249Y-12350D01*
X15249Y-12251D01*
X15249Y-11651D01*
X15211Y-11559D01*
X15141Y-11489D01*
X15050Y-11451D01*
X14951Y-11451D01*
X14351Y-11451D01*
X14259Y-11489D01*
X14189Y-11559D01*
X14151Y-11650D01*
X14151Y-11675D01*
X14011Y-11535D01*
X13809Y-11451D01*
X13591Y-11451D01*
X13389Y-11535D01*
X13235Y-11689D01*
X13200Y-11773D01*
X13165Y-11689D01*
X13011Y-11535D01*
X12809Y-11451D01*
X12591Y-11451D01*
X12389Y-11535D01*
X12235Y-11689D01*
X12200Y-11773D01*
X12165Y-11689D01*
X12011Y-11535D01*
X11809Y-11451D01*
X11591Y-11451D01*
X11389Y-11535D01*
X11235Y-11689D01*
X11200Y-11773D01*
X11165Y-11689D01*
X11011Y-11535D01*
X10809Y-11451D01*
X10591Y-11451D01*
X10389Y-11535D01*
X10235Y-11689D01*
X10168Y-11850D01*
X10168Y-10168D01*
X29203Y-10168D01*
X29203Y-10593D01*
X29105Y-10495D01*
X29011Y-10432D01*
X28900Y-10410D01*
X20800Y-10410D01*
X20689Y-10432D01*
X20595Y-10495D01*
X20295Y-10795D01*
X20232Y-10889D01*
X20211Y-10993D01*
X20109Y-10951D01*
X19891Y-10951D01*
X19689Y-11035D01*
X19535Y-11189D01*
X19500Y-11273D01*
X19465Y-11189D01*
X19311Y-11035D01*
X19109Y-10951D01*
X18891Y-10951D01*
X18689Y-11035D01*
X18535Y-11189D01*
X18500Y-11273D01*
X18465Y-11189D01*
X18311Y-11035D01*
X18109Y-10951D01*
X17891Y-10951D01*
X17689Y-11035D01*
X17535Y-11189D01*
X17500Y-11273D01*
X17465Y-11189D01*
X17311Y-11035D01*
X17109Y-10951D01*
X16891Y-10951D01*
X16689Y-11035D01*
X16535Y-11189D01*
X16500Y-11273D01*
X16465Y-11189D01*
X16311Y-11035D01*
X16109Y-10951D01*
X15891Y-10951D01*
X15689Y-11035D01*
X15535Y-11189D01*
X15451Y-11391D01*
X15451Y-11609D01*
X15535Y-11811D01*
X15689Y-11965D01*
X15780Y-12002D01*
X15719Y-12028D01*
X15692Y-12122D01*
X16000Y-12429D01*
X16308Y-12122D01*
X16281Y-12028D01*
X16215Y-12004D01*
X16311Y-11965D01*
X16465Y-11811D01*
X16500Y-11726D01*
X16535Y-11811D01*
X16689Y-11965D01*
X16773Y-12000D01*
X16689Y-12035D01*
X16535Y-12189D01*
X16497Y-12280D01*
X16472Y-12219D01*
X16378Y-12192D01*
X16071Y-12500D01*
X16378Y-12808D01*
X16472Y-12781D01*
X16495Y-12715D01*
X16535Y-12811D01*
X16689Y-12965D01*
X16891Y-13049D01*
X17041Y-13049D01*
X16308Y-13782D01*
X16308Y-12878D01*
X16000Y-12571D01*
X15929Y-12641D01*
X15929Y-12500D01*
X15622Y-12192D01*
X15528Y-12219D01*
X15457Y-12421D01*
X15468Y-12634D01*
X15528Y-12781D01*
X15622Y-12808D01*
X15929Y-12500D01*
X15929Y-12641D01*
X15692Y-12878D01*
X15719Y-12972D01*
X15921Y-13043D01*
X16134Y-13032D01*
X16281Y-12972D01*
X16308Y-12878D01*
X16308Y-13782D01*
X15595Y-14495D01*
X15574Y-14525D01*
X15503Y-14555D01*
X15355Y-14702D01*
X15275Y-14895D01*
X15275Y-15104D01*
X15355Y-15297D01*
X15502Y-15445D01*
X15695Y-15525D01*
X15904Y-15525D01*
X16097Y-15445D01*
X16245Y-15298D01*
X16325Y-15105D01*
X16325Y-14896D01*
X16245Y-14703D01*
X16226Y-14683D01*
X17869Y-13040D01*
X17891Y-13049D01*
X18041Y-13049D01*
X17295Y-13795D01*
X17232Y-13889D01*
X17210Y-14000D01*
X17210Y-14552D01*
X17203Y-14555D01*
X17055Y-14702D01*
X16975Y-14895D01*
X16975Y-15104D01*
X17055Y-15297D01*
X17202Y-15445D01*
X17395Y-15525D01*
X17604Y-15525D01*
X17797Y-15445D01*
X17945Y-15298D01*
X18025Y-15105D01*
X18025Y-14896D01*
X17945Y-14703D01*
X17798Y-14555D01*
X17790Y-14551D01*
X17790Y-14120D01*
X18869Y-13040D01*
X18891Y-13049D01*
X19109Y-13049D01*
X19311Y-12965D01*
X19465Y-12811D01*
X19500Y-12726D01*
X19535Y-12811D01*
X19689Y-12965D01*
X19891Y-13049D01*
X20109Y-13049D01*
X20311Y-12965D01*
X20465Y-12811D01*
X20500Y-12726D01*
X20535Y-12811D01*
X20689Y-12965D01*
X20891Y-13049D01*
X21109Y-13049D01*
X21130Y-13040D01*
X21210Y-13120D01*
X21210Y-14552D01*
X21203Y-14555D01*
X21055Y-14702D01*
X20999Y-14835D01*
X20945Y-14703D01*
X20798Y-14555D01*
X20605Y-14475D01*
X20396Y-14475D01*
X20203Y-14555D01*
X20055Y-14702D01*
X19975Y-14895D01*
X19975Y-15104D01*
X20055Y-15297D01*
X20202Y-15445D01*
X20395Y-15525D01*
X20604Y-15525D01*
X20797Y-15445D01*
X20945Y-15298D01*
X21000Y-15164D01*
X21055Y-15297D01*
X21202Y-15445D01*
X21395Y-15525D01*
X21604Y-15525D01*
X21797Y-15445D01*
X21945Y-15298D01*
X22025Y-15105D01*
X22025Y-14896D01*
X21945Y-14703D01*
X21798Y-14555D01*
X21790Y-14551D01*
X21790Y-13007D01*
X21891Y-13049D01*
X22109Y-13049D01*
X22311Y-12965D01*
X22465Y-12811D01*
X22500Y-12726D01*
X22535Y-12811D01*
X22689Y-12965D01*
X22891Y-13049D01*
X23109Y-13049D01*
X23311Y-12965D01*
X23465Y-12811D01*
X23500Y-12726D01*
X23535Y-12811D01*
X23689Y-12965D01*
X23891Y-13049D01*
X24109Y-13049D01*
X24229Y-12998D01*
X24232Y-13011D01*
X24295Y-13105D01*
X25707Y-14517D01*
X25605Y-14475D01*
X25396Y-14475D01*
X25203Y-14555D01*
X25055Y-14702D01*
X24999Y-14835D01*
X24945Y-14703D01*
X24798Y-14555D01*
X24605Y-14475D01*
X24396Y-14475D01*
X24203Y-14555D01*
X24055Y-14702D01*
X23975Y-14895D01*
X23975Y-15104D01*
X24055Y-15297D01*
X24202Y-15445D01*
X24395Y-15525D01*
X24604Y-15525D01*
X24611Y-15521D01*
X25465Y-16375D01*
X25396Y-16375D01*
X25203Y-16455D01*
X25055Y-16602D01*
X24999Y-16735D01*
X24945Y-16603D01*
X24798Y-16455D01*
X24605Y-16375D01*
X24396Y-16375D01*
X24203Y-16455D01*
X24055Y-16602D01*
X23999Y-16735D01*
X23945Y-16603D01*
X23798Y-16455D01*
X23605Y-16375D01*
X23396Y-16375D01*
X23203Y-16455D01*
X23055Y-16602D01*
X22999Y-16735D01*
X22945Y-16603D01*
X22798Y-16455D01*
X22605Y-16375D01*
X22396Y-16375D01*
X22203Y-16455D01*
X22055Y-16602D01*
X21999Y-16735D01*
X21945Y-16603D01*
X21798Y-16455D01*
X21605Y-16375D01*
X21396Y-16375D01*
X21203Y-16455D01*
X21055Y-16602D01*
X20999Y-16735D01*
X20945Y-16603D01*
X20798Y-16455D01*
X20605Y-16375D01*
X20396Y-16375D01*
X20203Y-16455D01*
X20055Y-16602D01*
X19996Y-16742D01*
X19952Y-16633D01*
X19861Y-16610D01*
X19790Y-16681D01*
X19790Y-16539D01*
X19767Y-16448D01*
X19574Y-16381D01*
X19370Y-16392D01*
X19233Y-16448D01*
X19210Y-16539D01*
X19500Y-16829D01*
X19790Y-16539D01*
X19790Y-16681D01*
X19571Y-16900D01*
X19861Y-17190D01*
X19952Y-17167D01*
X19993Y-17048D01*
X20055Y-17197D01*
X20202Y-17345D01*
X20395Y-17425D01*
X20604Y-17425D01*
X20797Y-17345D01*
X20945Y-17198D01*
X21000Y-17064D01*
X21055Y-17197D01*
X21202Y-17345D01*
X21395Y-17425D01*
X21604Y-17425D01*
X21797Y-17345D01*
X21945Y-17198D01*
X22000Y-17064D01*
X22055Y-17197D01*
X22202Y-17345D01*
X22395Y-17425D01*
X22604Y-17425D01*
X22797Y-17345D01*
X22945Y-17198D01*
X23000Y-17064D01*
X23055Y-17197D01*
X23202Y-17345D01*
X23395Y-17425D01*
X23604Y-17425D01*
X23797Y-17345D01*
X23945Y-17198D01*
X24000Y-17064D01*
X24055Y-17197D01*
X24073Y-17216D01*
X23680Y-17610D01*
X19790Y-17610D01*
X19790Y-17261D01*
X19500Y-16971D01*
X19429Y-17042D01*
X19429Y-16900D01*
X19139Y-16610D01*
X19048Y-16633D01*
X18981Y-16826D01*
X18992Y-17030D01*
X19048Y-17167D01*
X19139Y-17190D01*
X19429Y-16900D01*
X19429Y-17042D01*
X19210Y-17261D01*
X19233Y-17352D01*
X19426Y-17419D01*
X19630Y-17408D01*
X19767Y-17352D01*
X19790Y-17261D01*
X19790Y-17610D01*
X15700Y-17610D01*
X15589Y-17632D01*
X15495Y-17695D01*
X14090Y-19100D01*
X14090Y-18347D01*
X14097Y-18345D01*
X14245Y-18198D01*
X14325Y-18005D01*
X14325Y-17796D01*
X14319Y-17781D01*
X14319Y-16974D01*
X14308Y-16770D01*
X14252Y-16633D01*
X14161Y-16610D01*
X14090Y-16681D01*
X14090Y-16539D01*
X14067Y-16448D01*
X13874Y-16381D01*
X13670Y-16392D01*
X13533Y-16448D01*
X13510Y-16539D01*
X13800Y-16829D01*
X14090Y-16539D01*
X14090Y-16681D01*
X13871Y-16900D01*
X14161Y-17190D01*
X14252Y-17167D01*
X14319Y-16974D01*
X14319Y-17781D01*
X14245Y-17603D01*
X14098Y-17455D01*
X13957Y-17396D01*
X14067Y-17352D01*
X14090Y-17261D01*
X13800Y-16971D01*
X13729Y-17042D01*
X13729Y-16900D01*
X13439Y-16610D01*
X13348Y-16633D01*
X13325Y-16699D01*
X13325Y-15105D01*
X13325Y-14896D01*
X13245Y-14703D01*
X13098Y-14555D01*
X12905Y-14475D01*
X12696Y-14475D01*
X12503Y-14555D01*
X12355Y-14702D01*
X12275Y-14895D01*
X12275Y-15104D01*
X12355Y-15297D01*
X12502Y-15445D01*
X12695Y-15525D01*
X12904Y-15525D01*
X13097Y-15445D01*
X13245Y-15298D01*
X13325Y-15105D01*
X13325Y-16699D01*
X13281Y-16826D01*
X13292Y-17030D01*
X13348Y-17167D01*
X13439Y-17190D01*
X13729Y-16900D01*
X13729Y-17042D01*
X13510Y-17261D01*
X13533Y-17352D01*
X13651Y-17393D01*
X13503Y-17455D01*
X13355Y-17602D01*
X13275Y-17795D01*
X13275Y-18004D01*
X13355Y-18197D01*
X13502Y-18345D01*
X13510Y-18348D01*
X13510Y-19271D01*
X13461Y-19292D01*
X13292Y-19461D01*
X13201Y-19681D01*
X13201Y-19919D01*
X13292Y-20139D01*
X13461Y-20308D01*
X13681Y-20399D01*
X13891Y-20399D01*
X13880Y-20410D01*
X12220Y-20410D01*
X12124Y-20314D01*
X12139Y-20308D01*
X12308Y-20139D01*
X12399Y-19919D01*
X12399Y-19681D01*
X12308Y-19461D01*
X12139Y-19292D01*
X12090Y-19271D01*
X12090Y-18347D01*
X12097Y-18345D01*
X12245Y-18198D01*
X12325Y-18005D01*
X12325Y-17796D01*
X12319Y-17781D01*
X12319Y-16974D01*
X12308Y-16770D01*
X12252Y-16633D01*
X12161Y-16610D01*
X12090Y-16681D01*
X12090Y-16539D01*
X12067Y-16448D01*
X11874Y-16381D01*
X11670Y-16392D01*
X11533Y-16448D01*
X11510Y-16539D01*
X11800Y-16829D01*
X12090Y-16539D01*
X12090Y-16681D01*
X11871Y-16900D01*
X12161Y-17190D01*
X12252Y-17167D01*
X12319Y-16974D01*
X12319Y-17781D01*
X12245Y-17603D01*
X12098Y-17455D01*
X11957Y-17396D01*
X12067Y-17352D01*
X12090Y-17261D01*
X11800Y-16971D01*
X11729Y-17042D01*
X11729Y-16900D01*
X11439Y-16610D01*
X11348Y-16633D01*
X11281Y-16826D01*
X11292Y-17030D01*
X11348Y-17167D01*
X11439Y-17190D01*
X11729Y-16900D01*
X11729Y-17042D01*
X11510Y-17261D01*
X11533Y-17352D01*
X11651Y-17393D01*
X11503Y-17455D01*
X11355Y-17602D01*
X11275Y-17795D01*
X11275Y-18004D01*
X11355Y-18197D01*
X11502Y-18345D01*
X11510Y-18348D01*
X11510Y-19271D01*
X11461Y-19292D01*
X11292Y-19461D01*
X11201Y-19681D01*
X11201Y-19919D01*
X11292Y-20139D01*
X11461Y-20308D01*
X11510Y-20328D01*
X11510Y-20400D01*
X11532Y-20511D01*
X11595Y-20605D01*
X11895Y-20905D01*
X11989Y-20968D01*
X12100Y-20990D01*
X14000Y-20990D01*
X14111Y-20968D01*
X14205Y-20905D01*
X16520Y-18590D01*
X24100Y-18590D01*
X24211Y-18568D01*
X24305Y-18505D01*
X25387Y-17422D01*
X25395Y-17425D01*
X25604Y-17425D01*
X25763Y-17358D01*
X25795Y-17405D01*
X26095Y-17705D01*
X26189Y-17768D01*
X26300Y-17790D01*
X27800Y-17790D01*
X27911Y-17768D01*
X28005Y-17705D01*
X28286Y-17424D01*
X28810Y-17424D01*
X28810Y-19180D01*
X28612Y-19377D01*
X28605Y-19375D01*
X28396Y-19375D01*
X28203Y-19455D01*
X28055Y-19602D01*
X27999Y-19735D01*
X27945Y-19603D01*
X27798Y-19455D01*
X27605Y-19375D01*
X27396Y-19375D01*
X27203Y-19455D01*
X27055Y-19602D01*
X26999Y-19735D01*
X26945Y-19603D01*
X26798Y-19455D01*
X26605Y-19375D01*
X26396Y-19375D01*
X26203Y-19455D01*
X26055Y-19602D01*
X25999Y-19735D01*
X25945Y-19603D01*
X25798Y-19455D01*
X25605Y-19375D01*
X25396Y-19375D01*
X25203Y-19455D01*
X25055Y-19602D01*
X24999Y-19735D01*
X24945Y-19603D01*
X24798Y-19455D01*
X24605Y-19375D01*
X24396Y-19375D01*
X24203Y-19455D01*
X24055Y-19602D01*
X23999Y-19735D01*
X23945Y-19603D01*
X23798Y-19455D01*
X23605Y-19375D01*
X23396Y-19375D01*
X23203Y-19455D01*
X23055Y-19602D01*
X22999Y-19735D01*
X22945Y-19603D01*
X22798Y-19455D01*
X22605Y-19375D01*
X22396Y-19375D01*
X22203Y-19455D01*
X22055Y-19602D01*
X21999Y-19735D01*
X21945Y-19603D01*
X21798Y-19455D01*
X21605Y-19375D01*
X21396Y-19375D01*
X21203Y-19455D01*
X21055Y-19602D01*
X20999Y-19735D01*
X20945Y-19603D01*
X20798Y-19455D01*
X20605Y-19375D01*
X20396Y-19375D01*
X20203Y-19455D01*
X20055Y-19602D01*
X19999Y-19735D01*
X19945Y-19603D01*
X19798Y-19455D01*
X19605Y-19375D01*
X19396Y-19375D01*
X19203Y-19455D01*
X19055Y-19602D01*
X18975Y-19795D01*
X18975Y-20004D01*
X19055Y-20197D01*
X19167Y-20310D01*
X16700Y-20310D01*
X16589Y-20332D01*
X16495Y-20395D01*
X15012Y-21877D01*
X15005Y-21875D01*
X14796Y-21875D01*
X14603Y-21955D01*
X14455Y-22102D01*
X14399Y-22235D01*
X14345Y-22103D01*
X14198Y-21955D01*
X14005Y-21875D01*
X13796Y-21875D01*
X13603Y-21955D01*
X13455Y-22102D01*
X13399Y-22235D01*
X13345Y-22103D01*
X13198Y-21955D01*
X13005Y-21875D01*
X12796Y-21875D01*
X12603Y-21955D01*
X12455Y-22102D01*
X12399Y-22235D01*
X12345Y-22103D01*
X12198Y-21955D01*
X12005Y-21875D01*
X11796Y-21875D01*
X11603Y-21955D01*
X11455Y-22102D01*
X11396Y-22242D01*
X11352Y-22133D01*
X11261Y-22110D01*
X11190Y-22181D01*
X11190Y-22039D01*
X11167Y-21948D01*
X10974Y-21881D01*
X10770Y-21892D01*
X10633Y-21948D01*
X10610Y-22039D01*
X10900Y-22329D01*
X11190Y-22039D01*
X11190Y-22181D01*
X10971Y-22400D01*
X11261Y-22690D01*
X11352Y-22667D01*
X11393Y-22548D01*
X11455Y-22697D01*
X11602Y-22845D01*
X11795Y-22925D01*
X12004Y-22925D01*
X12197Y-22845D01*
X12345Y-22698D01*
X12400Y-22564D01*
X12455Y-22697D01*
X12602Y-22845D01*
X12795Y-22925D01*
X13004Y-22925D01*
X13197Y-22845D01*
X13345Y-22698D01*
X13400Y-22564D01*
X13455Y-22697D01*
X13602Y-22845D01*
X13795Y-22925D01*
X14004Y-22925D01*
X14197Y-22845D01*
X14345Y-22698D01*
X14400Y-22564D01*
X14455Y-22697D01*
X14602Y-22845D01*
X14795Y-22925D01*
X15004Y-22925D01*
X15197Y-22845D01*
X15345Y-22698D01*
X15400Y-22564D01*
X15455Y-22697D01*
X15602Y-22845D01*
X15795Y-22925D01*
X16004Y-22925D01*
X16197Y-22845D01*
X16345Y-22698D01*
X16400Y-22564D01*
X16455Y-22697D01*
X16602Y-22845D01*
X16795Y-22925D01*
X17004Y-22925D01*
X17197Y-22845D01*
X17345Y-22698D01*
X17376Y-22623D01*
X17376Y-22724D01*
X17414Y-22816D01*
X17484Y-22886D01*
X17575Y-22924D01*
X17674Y-22924D01*
X18224Y-22924D01*
X18316Y-22886D01*
X18386Y-22816D01*
X18424Y-22725D01*
X18424Y-22626D01*
X18424Y-22286D01*
X18620Y-22090D01*
X20855Y-22090D01*
X20852Y-22093D01*
X20883Y-22124D01*
X20848Y-22133D01*
X20781Y-22326D01*
X20792Y-22530D01*
X20848Y-22667D01*
X20939Y-22690D01*
X21194Y-22435D01*
X21229Y-22400D01*
X21300Y-22329D01*
X21371Y-22400D01*
X21406Y-22435D01*
X21661Y-22690D01*
X21752Y-22667D01*
X21793Y-22548D01*
X21855Y-22697D01*
X22002Y-22845D01*
X22195Y-22925D01*
X22404Y-22925D01*
X22597Y-22845D01*
X22745Y-22698D01*
X22800Y-22564D01*
X22855Y-22697D01*
X23002Y-22845D01*
X23195Y-22925D01*
X23404Y-22925D01*
X23597Y-22845D01*
X23745Y-22698D01*
X23800Y-22564D01*
X23855Y-22697D01*
X24002Y-22845D01*
X24195Y-22925D01*
X24404Y-22925D01*
X24597Y-22845D01*
X24745Y-22698D01*
X24800Y-22564D01*
X24855Y-22697D01*
X25002Y-22845D01*
X25195Y-22925D01*
X25404Y-22925D01*
X25597Y-22845D01*
X25745Y-22698D01*
X25800Y-22564D01*
X25855Y-22697D01*
X26002Y-22845D01*
X26195Y-22925D01*
X26404Y-22925D01*
X26597Y-22845D01*
X26745Y-22698D01*
X26800Y-22564D01*
X26855Y-22697D01*
X27002Y-22845D01*
X27195Y-22925D01*
X27404Y-22925D01*
X27597Y-22845D01*
X27745Y-22698D01*
X27776Y-22623D01*
X27776Y-22724D01*
X27814Y-22816D01*
X27884Y-22886D01*
X27975Y-22924D01*
X28074Y-22924D01*
X28624Y-22924D01*
X28716Y-22886D01*
X28786Y-22816D01*
X28824Y-22725D01*
X28824Y-22626D01*
X28824Y-22076D01*
X28786Y-21984D01*
X28716Y-21914D01*
X28625Y-21876D01*
X28526Y-21876D01*
X28186Y-21876D01*
X27790Y-21480D01*
X27790Y-20347D01*
X27797Y-20345D01*
X27945Y-20198D01*
X28000Y-20064D01*
X28055Y-20197D01*
X28202Y-20345D01*
X28395Y-20425D01*
X28604Y-20425D01*
X28797Y-20345D01*
X28945Y-20198D01*
X29025Y-20005D01*
X29025Y-19796D01*
X29021Y-19788D01*
X29203Y-19607D01*
X29203Y-29203D01*
X29203Y-29203D01*
G37*
G54D17*
X29203Y-29203D02*
X28825Y-29203D01*
X28825Y-25505D01*
X28825Y-25296D01*
X28745Y-25103D01*
X28598Y-24955D01*
X28405Y-24875D01*
X28196Y-24875D01*
X28003Y-24955D01*
X27855Y-25102D01*
X27799Y-25235D01*
X27745Y-25103D01*
X27598Y-24955D01*
X27405Y-24875D01*
X27196Y-24875D01*
X27003Y-24955D01*
X26855Y-25102D01*
X26799Y-25235D01*
X26745Y-25103D01*
X26598Y-24955D01*
X26405Y-24875D01*
X26196Y-24875D01*
X26003Y-24955D01*
X25855Y-25102D01*
X25799Y-25235D01*
X25745Y-25103D01*
X25598Y-24955D01*
X25405Y-24875D01*
X25196Y-24875D01*
X25003Y-24955D01*
X24855Y-25102D01*
X24799Y-25235D01*
X24745Y-25103D01*
X24598Y-24955D01*
X24405Y-24875D01*
X24196Y-24875D01*
X24003Y-24955D01*
X23855Y-25102D01*
X23799Y-25235D01*
X23745Y-25103D01*
X23598Y-24955D01*
X23405Y-24875D01*
X23196Y-24875D01*
X23003Y-24955D01*
X22855Y-25102D01*
X22799Y-25235D01*
X22745Y-25103D01*
X22598Y-24955D01*
X22405Y-24875D01*
X22196Y-24875D01*
X22003Y-24955D01*
X21855Y-25102D01*
X21799Y-25235D01*
X21745Y-25103D01*
X21598Y-24955D01*
X21590Y-24951D01*
X21590Y-22761D01*
X21300Y-22471D01*
X21229Y-22542D01*
X21010Y-22761D01*
X21033Y-22852D01*
X21226Y-22919D01*
X21430Y-22908D01*
X21567Y-22852D01*
X21590Y-22761D01*
X21590Y-24951D01*
X21405Y-24875D01*
X21196Y-24875D01*
X21003Y-24955D01*
X20855Y-25102D01*
X20775Y-25295D01*
X20775Y-25504D01*
X20855Y-25697D01*
X21002Y-25845D01*
X21195Y-25925D01*
X21404Y-25925D01*
X21597Y-25845D01*
X21745Y-25698D01*
X21800Y-25564D01*
X21855Y-25697D01*
X22002Y-25845D01*
X22195Y-25925D01*
X22404Y-25925D01*
X22597Y-25845D01*
X22745Y-25698D01*
X22800Y-25564D01*
X22855Y-25697D01*
X23002Y-25845D01*
X23195Y-25925D01*
X23404Y-25925D01*
X23597Y-25845D01*
X23745Y-25698D01*
X23800Y-25564D01*
X23855Y-25697D01*
X24002Y-25845D01*
X24195Y-25925D01*
X24404Y-25925D01*
X24597Y-25845D01*
X24745Y-25698D01*
X24800Y-25564D01*
X24855Y-25697D01*
X25002Y-25845D01*
X25010Y-25848D01*
X25010Y-28052D01*
X25003Y-28055D01*
X24855Y-28202D01*
X24799Y-28335D01*
X24745Y-28203D01*
X24598Y-28055D01*
X24405Y-27975D01*
X24196Y-27975D01*
X24003Y-28055D01*
X23855Y-28202D01*
X23775Y-28395D01*
X23775Y-28604D01*
X23855Y-28797D01*
X24002Y-28945D01*
X24195Y-29025D01*
X24404Y-29025D01*
X24597Y-28945D01*
X24745Y-28798D01*
X24800Y-28664D01*
X24855Y-28797D01*
X25002Y-28945D01*
X25195Y-29025D01*
X25404Y-29025D01*
X25597Y-28945D01*
X25745Y-28798D01*
X25800Y-28664D01*
X25855Y-28797D01*
X26002Y-28945D01*
X26195Y-29025D01*
X26404Y-29025D01*
X26597Y-28945D01*
X26745Y-28798D01*
X26800Y-28664D01*
X26855Y-28797D01*
X27002Y-28945D01*
X27195Y-29025D01*
X27404Y-29025D01*
X27597Y-28945D01*
X27745Y-28798D01*
X27776Y-28723D01*
X27776Y-28824D01*
X27814Y-28916D01*
X27884Y-28986D01*
X27975Y-29024D01*
X28074Y-29024D01*
X28624Y-29024D01*
X28716Y-28986D01*
X28786Y-28916D01*
X28824Y-28825D01*
X28824Y-28726D01*
X28824Y-28176D01*
X28786Y-28084D01*
X28716Y-28014D01*
X28625Y-27976D01*
X28590Y-27976D01*
X28590Y-25847D01*
X28597Y-25845D01*
X28745Y-25698D01*
X28825Y-25505D01*
X28825Y-29203D01*
X22149Y-29203D01*
X22149Y-28609D01*
X22149Y-28391D01*
X22143Y-28376D01*
X22143Y-27579D01*
X22132Y-27366D01*
X22072Y-27219D01*
X21978Y-27192D01*
X21908Y-27262D01*
X21908Y-27122D01*
X21881Y-27028D01*
X21679Y-26957D01*
X21466Y-26968D01*
X21319Y-27028D01*
X21292Y-27122D01*
X21600Y-27429D01*
X21908Y-27122D01*
X21908Y-27262D01*
X21671Y-27500D01*
X21978Y-27808D01*
X22072Y-27781D01*
X22143Y-27579D01*
X22143Y-28376D01*
X22065Y-28189D01*
X21911Y-28035D01*
X21819Y-27997D01*
X21881Y-27972D01*
X21908Y-27878D01*
X21600Y-27571D01*
X21529Y-27641D01*
X21529Y-27500D01*
X21222Y-27192D01*
X21128Y-27219D01*
X21102Y-27292D01*
X21072Y-27219D01*
X20978Y-27192D01*
X20908Y-27262D01*
X20908Y-27122D01*
X20881Y-27028D01*
X20679Y-26957D01*
X20466Y-26968D01*
X20319Y-27028D01*
X20292Y-27122D01*
X20600Y-27429D01*
X20908Y-27122D01*
X20908Y-27262D01*
X20671Y-27500D01*
X20978Y-27808D01*
X21072Y-27781D01*
X21097Y-27707D01*
X21128Y-27781D01*
X21222Y-27808D01*
X21529Y-27500D01*
X21529Y-27641D01*
X21292Y-27878D01*
X21319Y-27972D01*
X21384Y-27995D01*
X21289Y-28035D01*
X21135Y-28189D01*
X21100Y-28273D01*
X21065Y-28189D01*
X20911Y-28035D01*
X20819Y-27997D01*
X20881Y-27972D01*
X20908Y-27878D01*
X20600Y-27571D01*
X20529Y-27641D01*
X20529Y-27500D01*
X20222Y-27192D01*
X20128Y-27219D01*
X20102Y-27292D01*
X20072Y-27219D01*
X19978Y-27192D01*
X19908Y-27262D01*
X19908Y-27122D01*
X19881Y-27028D01*
X19679Y-26957D01*
X19466Y-26968D01*
X19319Y-27028D01*
X19292Y-27122D01*
X19600Y-27429D01*
X19908Y-27122D01*
X19908Y-27262D01*
X19671Y-27500D01*
X19978Y-27808D01*
X20072Y-27781D01*
X20097Y-27707D01*
X20128Y-27781D01*
X20222Y-27808D01*
X20529Y-27500D01*
X20529Y-27641D01*
X20292Y-27878D01*
X20319Y-27972D01*
X20384Y-27995D01*
X20289Y-28035D01*
X20135Y-28189D01*
X20100Y-28273D01*
X20065Y-28189D01*
X19911Y-28035D01*
X19819Y-27997D01*
X19881Y-27972D01*
X19908Y-27878D01*
X19600Y-27571D01*
X19529Y-27641D01*
X19529Y-27500D01*
X19222Y-27192D01*
X19128Y-27219D01*
X19102Y-27292D01*
X19072Y-27219D01*
X18978Y-27192D01*
X18908Y-27262D01*
X18908Y-27122D01*
X18881Y-27028D01*
X18679Y-26957D01*
X18466Y-26968D01*
X18425Y-26984D01*
X18425Y-25505D01*
X18425Y-25296D01*
X18345Y-25103D01*
X18198Y-24955D01*
X18005Y-24875D01*
X17796Y-24875D01*
X17603Y-24955D01*
X17455Y-25102D01*
X17399Y-25235D01*
X17345Y-25103D01*
X17198Y-24955D01*
X17005Y-24875D01*
X16796Y-24875D01*
X16603Y-24955D01*
X16455Y-25102D01*
X16399Y-25235D01*
X16345Y-25103D01*
X16198Y-24955D01*
X16005Y-24875D01*
X15796Y-24875D01*
X15603Y-24955D01*
X15455Y-25102D01*
X15399Y-25235D01*
X15345Y-25103D01*
X15198Y-24955D01*
X15005Y-24875D01*
X14796Y-24875D01*
X14603Y-24955D01*
X14455Y-25102D01*
X14399Y-25235D01*
X14345Y-25103D01*
X14198Y-24955D01*
X14005Y-24875D01*
X13796Y-24875D01*
X13603Y-24955D01*
X13455Y-25102D01*
X13399Y-25235D01*
X13345Y-25103D01*
X13198Y-24955D01*
X13005Y-24875D01*
X12796Y-24875D01*
X12603Y-24955D01*
X12455Y-25102D01*
X12399Y-25235D01*
X12345Y-25103D01*
X12198Y-24955D01*
X12005Y-24875D01*
X11796Y-24875D01*
X11603Y-24955D01*
X11455Y-25102D01*
X11399Y-25235D01*
X11345Y-25103D01*
X11198Y-24955D01*
X11190Y-24951D01*
X11190Y-22761D01*
X10900Y-22471D01*
X10829Y-22542D01*
X10829Y-22400D01*
X10539Y-22110D01*
X10448Y-22133D01*
X10381Y-22326D01*
X10392Y-22530D01*
X10448Y-22667D01*
X10539Y-22690D01*
X10829Y-22400D01*
X10829Y-22542D01*
X10610Y-22761D01*
X10633Y-22852D01*
X10826Y-22919D01*
X11030Y-22908D01*
X11167Y-22852D01*
X11190Y-22761D01*
X11190Y-24951D01*
X11005Y-24875D01*
X10796Y-24875D01*
X10603Y-24955D01*
X10455Y-25102D01*
X10375Y-25295D01*
X10375Y-25504D01*
X10455Y-25697D01*
X10602Y-25845D01*
X10795Y-25925D01*
X11004Y-25925D01*
X11197Y-25845D01*
X11345Y-25698D01*
X11400Y-25564D01*
X11455Y-25697D01*
X11602Y-25845D01*
X11795Y-25925D01*
X12004Y-25925D01*
X12197Y-25845D01*
X12345Y-25698D01*
X12400Y-25564D01*
X12455Y-25697D01*
X12602Y-25845D01*
X12795Y-25925D01*
X13004Y-25925D01*
X13197Y-25845D01*
X13345Y-25698D01*
X13400Y-25564D01*
X13455Y-25697D01*
X13602Y-25845D01*
X13795Y-25925D01*
X13964Y-25925D01*
X11914Y-27975D01*
X11796Y-27975D01*
X11603Y-28055D01*
X11455Y-28202D01*
X11399Y-28335D01*
X11345Y-28203D01*
X11198Y-28055D01*
X11005Y-27975D01*
X10796Y-27975D01*
X10603Y-28055D01*
X10455Y-28202D01*
X10375Y-28395D01*
X10375Y-28604D01*
X10455Y-28797D01*
X10602Y-28945D01*
X10795Y-29025D01*
X11004Y-29025D01*
X11197Y-28945D01*
X11345Y-28798D01*
X11400Y-28664D01*
X11455Y-28797D01*
X11602Y-28945D01*
X11795Y-29025D01*
X12004Y-29025D01*
X12197Y-28945D01*
X12345Y-28798D01*
X12400Y-28664D01*
X12455Y-28797D01*
X12602Y-28945D01*
X12795Y-29025D01*
X13004Y-29025D01*
X13197Y-28945D01*
X13345Y-28798D01*
X13400Y-28664D01*
X13455Y-28797D01*
X13602Y-28945D01*
X13795Y-29025D01*
X14004Y-29025D01*
X14197Y-28945D01*
X14345Y-28798D01*
X14376Y-28723D01*
X14376Y-28824D01*
X14414Y-28916D01*
X14484Y-28986D01*
X14575Y-29024D01*
X14674Y-29024D01*
X15224Y-29024D01*
X15316Y-28986D01*
X15386Y-28916D01*
X15424Y-28825D01*
X15424Y-28726D01*
X15424Y-28286D01*
X17788Y-25922D01*
X17795Y-25925D01*
X18004Y-25925D01*
X18197Y-25845D01*
X18345Y-25698D01*
X18425Y-25505D01*
X18425Y-26984D01*
X18319Y-27028D01*
X18292Y-27122D01*
X18600Y-27429D01*
X18908Y-27122D01*
X18908Y-27262D01*
X18671Y-27500D01*
X18978Y-27808D01*
X19072Y-27781D01*
X19097Y-27707D01*
X19128Y-27781D01*
X19222Y-27808D01*
X19529Y-27500D01*
X19529Y-27641D01*
X19292Y-27878D01*
X19319Y-27972D01*
X19384Y-27995D01*
X19289Y-28035D01*
X19135Y-28189D01*
X19100Y-28273D01*
X19065Y-28189D01*
X18911Y-28035D01*
X18819Y-27997D01*
X18881Y-27972D01*
X18908Y-27878D01*
X18600Y-27571D01*
X18529Y-27641D01*
X18529Y-27500D01*
X18222Y-27192D01*
X18128Y-27219D01*
X18102Y-27292D01*
X18072Y-27219D01*
X17978Y-27192D01*
X17908Y-27262D01*
X17908Y-27122D01*
X17881Y-27028D01*
X17679Y-26957D01*
X17466Y-26968D01*
X17319Y-27028D01*
X17292Y-27122D01*
X17600Y-27429D01*
X17908Y-27122D01*
X17908Y-27262D01*
X17671Y-27500D01*
X17978Y-27808D01*
X18072Y-27781D01*
X18097Y-27707D01*
X18128Y-27781D01*
X18222Y-27808D01*
X18529Y-27500D01*
X18529Y-27641D01*
X18292Y-27878D01*
X18319Y-27972D01*
X18384Y-27995D01*
X18289Y-28035D01*
X18149Y-28175D01*
X18149Y-28151D01*
X18111Y-28059D01*
X18041Y-27989D01*
X17950Y-27951D01*
X17887Y-27951D01*
X17908Y-27878D01*
X17600Y-27571D01*
X17529Y-27641D01*
X17529Y-27500D01*
X17222Y-27192D01*
X17128Y-27219D01*
X17057Y-27421D01*
X17068Y-27634D01*
X17128Y-27781D01*
X17222Y-27808D01*
X17529Y-27500D01*
X17529Y-27641D01*
X17292Y-27878D01*
X17312Y-27951D01*
X17251Y-27951D01*
X17159Y-27989D01*
X17089Y-28059D01*
X17051Y-28150D01*
X17051Y-28249D01*
X17051Y-28849D01*
X17089Y-28941D01*
X17159Y-29011D01*
X17250Y-29049D01*
X17349Y-29049D01*
X17949Y-29049D01*
X18041Y-29011D01*
X18111Y-28941D01*
X18149Y-28850D01*
X18149Y-28825D01*
X18289Y-28965D01*
X18491Y-29049D01*
X18709Y-29049D01*
X18911Y-28965D01*
X19065Y-28811D01*
X19100Y-28726D01*
X19135Y-28811D01*
X19289Y-28965D01*
X19491Y-29049D01*
X19709Y-29049D01*
X19911Y-28965D01*
X20065Y-28811D01*
X20100Y-28726D01*
X20135Y-28811D01*
X20289Y-28965D01*
X20491Y-29049D01*
X20709Y-29049D01*
X20911Y-28965D01*
X21065Y-28811D01*
X21100Y-28726D01*
X21135Y-28811D01*
X21289Y-28965D01*
X21491Y-29049D01*
X21709Y-29049D01*
X21911Y-28965D01*
X22065Y-28811D01*
X22149Y-28609D01*
X22149Y-29203D01*
X10168Y-29203D01*
X10168Y-12149D01*
X10235Y-12311D01*
X10389Y-12465D01*
X10591Y-12549D01*
X10809Y-12549D01*
X11011Y-12465D01*
X11165Y-12311D01*
X11200Y-12226D01*
X11235Y-12311D01*
X11389Y-12465D01*
X11591Y-12549D01*
X11809Y-12549D01*
X12011Y-12465D01*
X12165Y-12311D01*
X12200Y-12226D01*
X12235Y-12311D01*
X12389Y-12465D01*
X12591Y-12549D01*
X12809Y-12549D01*
X13011Y-12465D01*
X13165Y-12311D01*
X13200Y-12226D01*
X13235Y-12311D01*
X13389Y-12465D01*
X13591Y-12549D01*
X13809Y-12549D01*
X14011Y-12465D01*
X14151Y-12325D01*
X14151Y-12349D01*
X14189Y-12441D01*
X14259Y-12511D01*
X14350Y-12549D01*
X14449Y-12549D01*
X15049Y-12549D01*
X15141Y-12511D01*
X15211Y-12441D01*
X15249Y-12350D01*
X15249Y-12251D01*
X15249Y-11651D01*
X15211Y-11559D01*
X15141Y-11489D01*
X15050Y-11451D01*
X14951Y-11451D01*
X14351Y-11451D01*
X14259Y-11489D01*
X14189Y-11559D01*
X14151Y-11650D01*
X14151Y-11675D01*
X14011Y-11535D01*
X13809Y-11451D01*
X13591Y-11451D01*
X13389Y-11535D01*
X13235Y-11689D01*
X13200Y-11773D01*
X13165Y-11689D01*
X13011Y-11535D01*
X12809Y-11451D01*
X12591Y-11451D01*
X12389Y-11535D01*
X12235Y-11689D01*
X12200Y-11773D01*
X12165Y-11689D01*
X12011Y-11535D01*
X11809Y-11451D01*
X11591Y-11451D01*
X11389Y-11535D01*
X11235Y-11689D01*
X11200Y-11773D01*
X11165Y-11689D01*
X11011Y-11535D01*
X10809Y-11451D01*
X10591Y-11451D01*
X10389Y-11535D01*
X10235Y-11689D01*
X10168Y-11850D01*
X10168Y-10168D01*
X29203Y-10168D01*
X29203Y-10593D01*
X29105Y-10495D01*
X29011Y-10432D01*
X28900Y-10410D01*
X20800Y-10410D01*
X20689Y-10432D01*
X20595Y-10495D01*
X20295Y-10795D01*
X20232Y-10889D01*
X20211Y-10993D01*
X20109Y-10951D01*
X19891Y-10951D01*
X19689Y-11035D01*
X19535Y-11189D01*
X19500Y-11273D01*
X19465Y-11189D01*
X19311Y-11035D01*
X19109Y-10951D01*
X18891Y-10951D01*
X18689Y-11035D01*
X18535Y-11189D01*
X18500Y-11273D01*
X18465Y-11189D01*
X18311Y-11035D01*
X18109Y-10951D01*
X17891Y-10951D01*
X17689Y-11035D01*
X17535Y-11189D01*
X17500Y-11273D01*
X17465Y-11189D01*
X17311Y-11035D01*
X17109Y-10951D01*
X16891Y-10951D01*
X16689Y-11035D01*
X16535Y-11189D01*
X16500Y-11273D01*
X16465Y-11189D01*
X16311Y-11035D01*
X16109Y-10951D01*
X15891Y-10951D01*
X15689Y-11035D01*
X15535Y-11189D01*
X15451Y-11391D01*
X15451Y-11609D01*
X15535Y-11811D01*
X15689Y-11965D01*
X15780Y-12002D01*
X15719Y-12028D01*
X15692Y-12122D01*
X16000Y-12429D01*
X16308Y-12122D01*
X16281Y-12028D01*
X16215Y-12004D01*
X16311Y-11965D01*
X16465Y-11811D01*
X16500Y-11726D01*
X16535Y-11811D01*
X16689Y-11965D01*
X16773Y-12000D01*
X16689Y-12035D01*
X16535Y-12189D01*
X16497Y-12280D01*
X16472Y-12219D01*
X16378Y-12192D01*
X16071Y-12500D01*
X16378Y-12808D01*
X16472Y-12781D01*
X16495Y-12715D01*
X16535Y-12811D01*
X16689Y-12965D01*
X16891Y-13049D01*
X17041Y-13049D01*
X16308Y-13782D01*
X16308Y-12878D01*
X16000Y-12571D01*
X15929Y-12641D01*
X15929Y-12500D01*
X15622Y-12192D01*
X15528Y-12219D01*
X15457Y-12421D01*
X15468Y-12634D01*
X15528Y-12781D01*
X15622Y-12808D01*
X15929Y-12500D01*
X15929Y-12641D01*
X15692Y-12878D01*
X15719Y-12972D01*
X15921Y-13043D01*
X16134Y-13032D01*
X16281Y-12972D01*
X16308Y-12878D01*
X16308Y-13782D01*
X15595Y-14495D01*
X15574Y-14525D01*
X15503Y-14555D01*
X15355Y-14702D01*
X15275Y-14895D01*
X15275Y-15104D01*
X15355Y-15297D01*
X15502Y-15445D01*
X15695Y-15525D01*
X15904Y-15525D01*
X16097Y-15445D01*
X16245Y-15298D01*
X16325Y-15105D01*
X16325Y-14896D01*
X16245Y-14703D01*
X16226Y-14683D01*
X17869Y-13040D01*
X17891Y-13049D01*
X18041Y-13049D01*
X17295Y-13795D01*
X17232Y-13889D01*
X17210Y-14000D01*
X17210Y-14552D01*
X17203Y-14555D01*
X17055Y-14702D01*
X16975Y-14895D01*
X16975Y-15104D01*
X17055Y-15297D01*
X17202Y-15445D01*
X17395Y-15525D01*
X17604Y-15525D01*
X17797Y-15445D01*
X17945Y-15298D01*
X18025Y-15105D01*
X18025Y-14896D01*
X17945Y-14703D01*
X17798Y-14555D01*
X17790Y-14551D01*
X17790Y-14120D01*
X18869Y-13040D01*
X18891Y-13049D01*
X19109Y-13049D01*
X19311Y-12965D01*
X19465Y-12811D01*
X19500Y-12726D01*
X19535Y-12811D01*
X19689Y-12965D01*
X19891Y-13049D01*
X20109Y-13049D01*
X20311Y-12965D01*
X20465Y-12811D01*
X20500Y-12726D01*
X20535Y-12811D01*
X20689Y-12965D01*
X20891Y-13049D01*
X21109Y-13049D01*
X21130Y-13040D01*
X21210Y-13120D01*
X21210Y-14552D01*
X21203Y-14555D01*
X21055Y-14702D01*
X20999Y-14835D01*
X20945Y-14703D01*
X20798Y-14555D01*
X20605Y-14475D01*
X20396Y-14475D01*
X20203Y-14555D01*
X20055Y-14702D01*
X19975Y-14895D01*
X19975Y-15104D01*
X20055Y-15297D01*
X20202Y-15445D01*
X20395Y-15525D01*
X20604Y-15525D01*
X20797Y-15445D01*
X20945Y-15298D01*
X21000Y-15164D01*
X21055Y-15297D01*
X21202Y-15445D01*
X21395Y-15525D01*
X21604Y-15525D01*
X21797Y-15445D01*
X21945Y-15298D01*
X22025Y-15105D01*
X22025Y-14896D01*
X21945Y-14703D01*
X21798Y-14555D01*
X21790Y-14551D01*
X21790Y-13007D01*
X21891Y-13049D01*
X22109Y-13049D01*
X22311Y-12965D01*
X22465Y-12811D01*
X22500Y-12726D01*
X22535Y-12811D01*
X22689Y-12965D01*
X22891Y-13049D01*
X23109Y-13049D01*
X23311Y-12965D01*
X23465Y-12811D01*
X23500Y-12726D01*
X23535Y-12811D01*
X23689Y-12965D01*
X23891Y-13049D01*
X24109Y-13049D01*
X24229Y-12998D01*
X24232Y-13011D01*
X24295Y-13105D01*
X25707Y-14517D01*
X25605Y-14475D01*
X25396Y-14475D01*
X25203Y-14555D01*
X25055Y-14702D01*
X24999Y-14835D01*
X24945Y-14703D01*
X24798Y-14555D01*
X24605Y-14475D01*
X24396Y-14475D01*
X24203Y-14555D01*
X24055Y-14702D01*
X23975Y-14895D01*
X23975Y-15104D01*
X24055Y-15297D01*
X24202Y-15445D01*
X24395Y-15525D01*
X24604Y-15525D01*
X24611Y-15521D01*
X25465Y-16375D01*
X25396Y-16375D01*
X25203Y-16455D01*
X25055Y-16602D01*
X24999Y-16735D01*
X24945Y-16603D01*
X24798Y-16455D01*
X24605Y-16375D01*
X24396Y-16375D01*
X24203Y-16455D01*
X24055Y-16602D01*
X23999Y-16735D01*
X23945Y-16603D01*
X23798Y-16455D01*
X23605Y-16375D01*
X23396Y-16375D01*
X23203Y-16455D01*
X23055Y-16602D01*
X22999Y-16735D01*
X22945Y-16603D01*
X22798Y-16455D01*
X22605Y-16375D01*
X22396Y-16375D01*
X22203Y-16455D01*
X22055Y-16602D01*
X21999Y-16735D01*
X21945Y-16603D01*
X21798Y-16455D01*
X21605Y-16375D01*
X21396Y-16375D01*
X21203Y-16455D01*
X21055Y-16602D01*
X20999Y-16735D01*
X20945Y-16603D01*
X20798Y-16455D01*
X20605Y-16375D01*
X20396Y-16375D01*
X20203Y-16455D01*
X20055Y-16602D01*
X19996Y-16742D01*
X19952Y-16633D01*
X19861Y-16610D01*
X19790Y-16681D01*
X19790Y-16539D01*
X19767Y-16448D01*
X19574Y-16381D01*
X19370Y-16392D01*
X19233Y-16448D01*
X19210Y-16539D01*
X19500Y-16829D01*
X19790Y-16539D01*
X19790Y-16681D01*
X19571Y-16900D01*
X19861Y-17190D01*
X19952Y-17167D01*
X19993Y-17048D01*
X20055Y-17197D01*
X20202Y-17345D01*
X20395Y-17425D01*
X20604Y-17425D01*
X20797Y-17345D01*
X20945Y-17198D01*
X21000Y-17064D01*
X21055Y-17197D01*
X21202Y-17345D01*
X21395Y-17425D01*
X21604Y-17425D01*
X21797Y-17345D01*
X21945Y-17198D01*
X22000Y-17064D01*
X22055Y-17197D01*
X22202Y-17345D01*
X22395Y-17425D01*
X22604Y-17425D01*
X22797Y-17345D01*
X22945Y-17198D01*
X23000Y-17064D01*
X23055Y-17197D01*
X23202Y-17345D01*
X23395Y-17425D01*
X23604Y-17425D01*
X23797Y-17345D01*
X23945Y-17198D01*
X24000Y-17064D01*
X24055Y-17197D01*
X24073Y-17216D01*
X23680Y-17610D01*
X19790Y-17610D01*
X19790Y-17261D01*
X19500Y-16971D01*
X19429Y-17042D01*
X19429Y-16900D01*
X19139Y-16610D01*
X19048Y-16633D01*
X18981Y-16826D01*
X18992Y-17030D01*
X19048Y-17167D01*
X19139Y-17190D01*
X19429Y-16900D01*
X19429Y-17042D01*
X19210Y-17261D01*
X19233Y-17352D01*
X19426Y-17419D01*
X19630Y-17408D01*
X19767Y-17352D01*
X19790Y-17261D01*
X19790Y-17610D01*
X15700Y-17610D01*
X15589Y-17632D01*
X15495Y-17695D01*
X14090Y-19100D01*
X14090Y-18347D01*
X14097Y-18345D01*
X14245Y-18198D01*
X14325Y-18005D01*
X14325Y-17796D01*
X14319Y-17781D01*
X14319Y-16974D01*
X14308Y-16770D01*
X14252Y-16633D01*
X14161Y-16610D01*
X14090Y-16681D01*
X14090Y-16539D01*
X14067Y-16448D01*
X13874Y-16381D01*
X13670Y-16392D01*
X13533Y-16448D01*
X13510Y-16539D01*
X13800Y-16829D01*
X14090Y-16539D01*
X14090Y-16681D01*
X13871Y-16900D01*
X14161Y-17190D01*
X14252Y-17167D01*
X14319Y-16974D01*
X14319Y-17781D01*
X14245Y-17603D01*
X14098Y-17455D01*
X13957Y-17396D01*
X14067Y-17352D01*
X14090Y-17261D01*
X13800Y-16971D01*
X13729Y-17042D01*
X13729Y-16900D01*
X13439Y-16610D01*
X13348Y-16633D01*
X13325Y-16699D01*
X13325Y-15105D01*
X13325Y-14896D01*
X13245Y-14703D01*
X13098Y-14555D01*
X12905Y-14475D01*
X12696Y-14475D01*
X12503Y-14555D01*
X12355Y-14702D01*
X12275Y-14895D01*
X12275Y-15104D01*
X12355Y-15297D01*
X12502Y-15445D01*
X12695Y-15525D01*
X12904Y-15525D01*
X13097Y-15445D01*
X13245Y-15298D01*
X13325Y-15105D01*
X13325Y-16699D01*
X13281Y-16826D01*
X13292Y-17030D01*
X13348Y-17167D01*
X13439Y-17190D01*
X13729Y-16900D01*
X13729Y-17042D01*
X13510Y-17261D01*
X13533Y-17352D01*
X13651Y-17393D01*
X13503Y-17455D01*
X13355Y-17602D01*
X13275Y-17795D01*
X13275Y-18004D01*
X13355Y-18197D01*
X13502Y-18345D01*
X13510Y-18348D01*
X13510Y-19271D01*
X13461Y-19292D01*
X13292Y-19461D01*
X13201Y-19681D01*
X13201Y-19919D01*
X13292Y-20139D01*
X13461Y-20308D01*
X13681Y-20399D01*
X13891Y-20399D01*
X13880Y-20410D01*
X12220Y-20410D01*
X12124Y-20314D01*
X12139Y-20308D01*
X12308Y-20139D01*
X12399Y-19919D01*
X12399Y-19681D01*
X12308Y-19461D01*
X12139Y-19292D01*
X12090Y-19271D01*
X12090Y-18347D01*
X12097Y-18345D01*
X12245Y-18198D01*
X12325Y-18005D01*
X12325Y-17796D01*
X12319Y-17781D01*
X12319Y-16974D01*
X12308Y-16770D01*
X12252Y-16633D01*
X12161Y-16610D01*
X12090Y-16681D01*
X12090Y-16539D01*
X12067Y-16448D01*
X11874Y-16381D01*
X11670Y-16392D01*
X11533Y-16448D01*
X11510Y-16539D01*
X11800Y-16829D01*
X12090Y-16539D01*
X12090Y-16681D01*
X11871Y-16900D01*
X12161Y-17190D01*
X12252Y-17167D01*
X12319Y-16974D01*
X12319Y-17781D01*
X12245Y-17603D01*
X12098Y-17455D01*
X11957Y-17396D01*
X12067Y-17352D01*
X12090Y-17261D01*
X11800Y-16971D01*
X11729Y-17042D01*
X11729Y-16900D01*
X11439Y-16610D01*
X11348Y-16633D01*
X11281Y-16826D01*
X11292Y-17030D01*
X11348Y-17167D01*
X11439Y-17190D01*
X11729Y-16900D01*
X11729Y-17042D01*
X11510Y-17261D01*
X11533Y-17352D01*
X11651Y-17393D01*
X11503Y-17455D01*
X11355Y-17602D01*
X11275Y-17795D01*
X11275Y-18004D01*
X11355Y-18197D01*
X11502Y-18345D01*
X11510Y-18348D01*
X11510Y-19271D01*
X11461Y-19292D01*
X11292Y-19461D01*
X11201Y-19681D01*
X11201Y-19919D01*
X11292Y-20139D01*
X11461Y-20308D01*
X11510Y-20328D01*
X11510Y-20400D01*
X11532Y-20511D01*
X11595Y-20605D01*
X11895Y-20905D01*
X11989Y-20968D01*
X12100Y-20990D01*
X14000Y-20990D01*
X14111Y-20968D01*
X14205Y-20905D01*
X16520Y-18590D01*
X24100Y-18590D01*
X24211Y-18568D01*
X24305Y-18505D01*
X25387Y-17422D01*
X25395Y-17425D01*
X25604Y-17425D01*
X25763Y-17358D01*
X25795Y-17405D01*
X26095Y-17705D01*
X26189Y-17768D01*
X26300Y-17790D01*
X27800Y-17790D01*
X27911Y-17768D01*
X28005Y-17705D01*
X28286Y-17424D01*
X28810Y-17424D01*
X28810Y-19180D01*
X28612Y-19377D01*
X28605Y-19375D01*
X28396Y-19375D01*
X28203Y-19455D01*
X28055Y-19602D01*
X27999Y-19735D01*
X27945Y-19603D01*
X27798Y-19455D01*
X27605Y-19375D01*
X27396Y-19375D01*
X27203Y-19455D01*
X27055Y-19602D01*
X26999Y-19735D01*
X26945Y-19603D01*
X26798Y-19455D01*
X26605Y-19375D01*
X26396Y-19375D01*
X26203Y-19455D01*
X26055Y-19602D01*
X25999Y-19735D01*
X25945Y-19603D01*
X25798Y-19455D01*
X25605Y-19375D01*
X25396Y-19375D01*
X25203Y-19455D01*
X25055Y-19602D01*
X24999Y-19735D01*
X24945Y-19603D01*
X24798Y-19455D01*
X24605Y-19375D01*
X24396Y-19375D01*
X24203Y-19455D01*
X24055Y-19602D01*
X23999Y-19735D01*
X23945Y-19603D01*
X23798Y-19455D01*
X23605Y-19375D01*
X23396Y-19375D01*
X23203Y-19455D01*
X23055Y-19602D01*
X22999Y-19735D01*
X22945Y-19603D01*
X22798Y-19455D01*
X22605Y-19375D01*
X22396Y-19375D01*
X22203Y-19455D01*
X22055Y-19602D01*
X21999Y-19735D01*
X21945Y-19603D01*
X21798Y-19455D01*
X21605Y-19375D01*
X21396Y-19375D01*
X21203Y-19455D01*
X21055Y-19602D01*
X20999Y-19735D01*
X20945Y-19603D01*
X20798Y-19455D01*
X20605Y-19375D01*
X20396Y-19375D01*
X20203Y-19455D01*
X20055Y-19602D01*
X19999Y-19735D01*
X19945Y-19603D01*
X19798Y-19455D01*
X19605Y-19375D01*
X19396Y-19375D01*
X19203Y-19455D01*
X19055Y-19602D01*
X18975Y-19795D01*
X18975Y-20004D01*
X19055Y-20197D01*
X19167Y-20310D01*
X16700Y-20310D01*
X16589Y-20332D01*
X16495Y-20395D01*
X15012Y-21877D01*
X15005Y-21875D01*
X14796Y-21875D01*
X14603Y-21955D01*
X14455Y-22102D01*
X14399Y-22235D01*
X14345Y-22103D01*
X14198Y-21955D01*
X14005Y-21875D01*
X13796Y-21875D01*
X13603Y-21955D01*
X13455Y-22102D01*
X13399Y-22235D01*
X13345Y-22103D01*
X13198Y-21955D01*
X13005Y-21875D01*
X12796Y-21875D01*
X12603Y-21955D01*
X12455Y-22102D01*
X12399Y-22235D01*
X12345Y-22103D01*
X12198Y-21955D01*
X12005Y-21875D01*
X11796Y-21875D01*
X11603Y-21955D01*
X11455Y-22102D01*
X11396Y-22242D01*
X11352Y-22133D01*
X11261Y-22110D01*
X11190Y-22181D01*
X11190Y-22039D01*
X11167Y-21948D01*
X10974Y-21881D01*
X10770Y-21892D01*
X10633Y-21948D01*
X10610Y-22039D01*
X10900Y-22329D01*
X11190Y-22039D01*
X11190Y-22181D01*
X10971Y-22400D01*
X11261Y-22690D01*
X11352Y-22667D01*
X11393Y-22548D01*
X11455Y-22697D01*
X11602Y-22845D01*
X11795Y-22925D01*
X12004Y-22925D01*
X12197Y-22845D01*
X12345Y-22698D01*
X12400Y-22564D01*
X12455Y-22697D01*
X12602Y-22845D01*
X12795Y-22925D01*
X13004Y-22925D01*
X13197Y-22845D01*
X13345Y-22698D01*
X13400Y-22564D01*
X13455Y-22697D01*
X13602Y-22845D01*
X13795Y-22925D01*
X14004Y-22925D01*
X14197Y-22845D01*
X14345Y-22698D01*
X14400Y-22564D01*
X14455Y-22697D01*
X14602Y-22845D01*
X14795Y-22925D01*
X15004Y-22925D01*
X15197Y-22845D01*
X15345Y-22698D01*
X15400Y-22564D01*
X15455Y-22697D01*
X15602Y-22845D01*
X15795Y-22925D01*
X16004Y-22925D01*
X16197Y-22845D01*
X16345Y-22698D01*
X16400Y-22564D01*
X16455Y-22697D01*
X16602Y-22845D01*
X16795Y-22925D01*
X17004Y-22925D01*
X17197Y-22845D01*
X17345Y-22698D01*
X17376Y-22623D01*
X17376Y-22724D01*
X17414Y-22816D01*
X17484Y-22886D01*
X17575Y-22924D01*
X17674Y-22924D01*
X18224Y-22924D01*
X18316Y-22886D01*
X18386Y-22816D01*
X18424Y-22725D01*
X18424Y-22626D01*
X18424Y-22286D01*
X18620Y-22090D01*
X20855Y-22090D01*
X20852Y-22093D01*
X20883Y-22124D01*
X20848Y-22133D01*
X20781Y-22326D01*
X20792Y-22530D01*
X20848Y-22667D01*
X20939Y-22690D01*
X21194Y-22435D01*
X21229Y-22400D01*
X21300Y-22329D01*
X21371Y-22400D01*
X21406Y-22435D01*
X21661Y-22690D01*
X21752Y-22667D01*
X21793Y-22548D01*
X21855Y-22697D01*
X22002Y-22845D01*
X22195Y-22925D01*
X22404Y-22925D01*
X22597Y-22845D01*
X22745Y-22698D01*
X22800Y-22564D01*
X22855Y-22697D01*
X23002Y-22845D01*
X23195Y-22925D01*
X23404Y-22925D01*
X23597Y-22845D01*
X23745Y-22698D01*
X23800Y-22564D01*
X23855Y-22697D01*
X24002Y-22845D01*
X24195Y-22925D01*
X24404Y-22925D01*
X24597Y-22845D01*
X24745Y-22698D01*
X24800Y-22564D01*
X24855Y-22697D01*
X25002Y-22845D01*
X25195Y-22925D01*
X25404Y-22925D01*
X25597Y-22845D01*
X25745Y-22698D01*
X25800Y-22564D01*
X25855Y-22697D01*
X26002Y-22845D01*
X26195Y-22925D01*
X26404Y-22925D01*
X26597Y-22845D01*
X26745Y-22698D01*
X26800Y-22564D01*
X26855Y-22697D01*
X27002Y-22845D01*
X27195Y-22925D01*
X27404Y-22925D01*
X27597Y-22845D01*
X27745Y-22698D01*
X27776Y-22623D01*
X27776Y-22724D01*
X27814Y-22816D01*
X27884Y-22886D01*
X27975Y-22924D01*
X28074Y-22924D01*
X28624Y-22924D01*
X28716Y-22886D01*
X28786Y-22816D01*
X28824Y-22725D01*
X28824Y-22626D01*
X28824Y-22076D01*
X28786Y-21984D01*
X28716Y-21914D01*
X28625Y-21876D01*
X28526Y-21876D01*
X28186Y-21876D01*
X27790Y-21480D01*
X27790Y-20347D01*
X27797Y-20345D01*
X27945Y-20198D01*
X28000Y-20064D01*
X28055Y-20197D01*
X28202Y-20345D01*
X28395Y-20425D01*
X28604Y-20425D01*
X28797Y-20345D01*
X28945Y-20198D01*
X29025Y-20005D01*
X29025Y-19796D01*
X29021Y-19788D01*
X29203Y-19607D01*
X29203Y-29203D01*
M02*
